<svg width="1158" height="697" viewBox="0 0 1158 697" fill="none" xmlns="http://www.w3.org/2000/svg">
<g clip-path="url(#clip0_306_2)">
<rect width="1158" height="697" rx="20" fill="#060928"/>
<g filter="url(#filter0_f_306_2)">
<path d="M512.534 565.883C456.458 383.575 543.963 195.091 707.982 144.893C872 94.6942 1050.42 201.79 1106.5 384.098C1162.57 566.406 1075.07 754.889 911.05 805.088C747.031 855.287 568.61 748.191 512.534 565.883Z" fill="url(#paint0_linear_306_2)"/>
</g>
<g filter="url(#filter1_f_306_2)">
<path d="M334.518 159.585C273.801 242.457 150.129 269.226 58.2896 219.374C-33.5497 169.522 -58.7791 61.9269 1.93834 -20.9457C62.6558 -103.818 186.327 -130.587 278.167 -80.7348C370.006 -30.8827 395.236 76.712 334.518 159.585Z" fill="url(#paint1_linear_306_2)"/>
</g>
<g filter="url(#filter2_f_306_2)">
<ellipse rx="243.018" ry="241.875" transform="matrix(-0.987048 0.160426 -0.210528 -0.977588 476.792 134.44)" fill="url(#paint2_linear_306_2)"/>
</g>
<g filter="url(#filter3_f_306_2)">
<ellipse rx="294.855" ry="269.703" transform="matrix(0.999575 -0.0291589 0.166908 0.985973 868.745 103.518)" fill="url(#paint3_linear_306_2)"/>
</g>
<g filter="url(#filter4_f_306_2)">
<path d="M77.2087 305.608C223.007 344.052 326.376 495.309 308.09 643.451C289.805 791.592 156.789 880.52 10.9907 842.076C-134.807 803.633 -238.177 652.375 -219.891 504.234C-201.605 356.092 -68.5893 267.164 77.2087 305.608Z" fill="url(#paint4_linear_306_2)"/>
</g>
<g filter="url(#filter5_f_306_2)">
<ellipse rx="310.495" ry="314.505" transform="matrix(0.672966 -0.739673 0.82437 0.566052 494.221 488.691)" fill="url(#paint5_linear_306_2)" fill-opacity="0.72"/>
</g>
</g>
<defs>
<filter id="filter0_f_306_2" x="283.572" y="-79.4785" width="1051.89" height="1108.94" filterUnits="userSpaceOnUse" color-interpolation-filters="sRGB">
<feFlood flood-opacity="0" result="BackgroundImageFix"/>
<feBlend mode="normal" in="SourceGraphic" in2="BackgroundImageFix" result="shape"/>
<feGaussianBlur stdDeviation="106" result="effect1_foregroundBlur_306_2"/>
</filter>
<filter id="filter1_f_306_2" x="-243.141" y="-317.818" width="822.736" height="774.276" filterUnits="userSpaceOnUse" color-interpolation-filters="sRGB">
<feFlood flood-opacity="0" result="BackgroundImageFix"/>
<feBlend mode="normal" in="SourceGraphic" in2="BackgroundImageFix" result="shape"/>
<feGaussianBlur stdDeviation="106" result="effect1_foregroundBlur_306_2"/>
</filter>
<filter id="filter2_f_306_2" x="19.5254" y="-317.243" width="914.533" height="903.367" filterUnits="userSpaceOnUse" color-interpolation-filters="sRGB">
<feFlood flood-opacity="0" result="BackgroundImageFix"/>
<feBlend mode="normal" in="SourceGraphic" in2="BackgroundImageFix" result="shape"/>
<feGaussianBlur stdDeviation="106" result="effect1_foregroundBlur_306_2"/>
</filter>
<filter id="filter3_f_306_2" x="358.557" y="-374.544" width="1020.38" height="956.123" filterUnits="userSpaceOnUse" color-interpolation-filters="sRGB">
<feFlood flood-opacity="0" result="BackgroundImageFix"/>
<feBlend mode="normal" in="SourceGraphic" in2="BackgroundImageFix" result="shape"/>
<feGaussianBlur stdDeviation="106" result="effect1_foregroundBlur_306_2"/>
</filter>
<filter id="filter4_f_306_2" x="-433.986" y="84.6558" width="956.174" height="978.373" filterUnits="userSpaceOnUse" color-interpolation-filters="sRGB">
<feFlood flood-opacity="0" result="BackgroundImageFix"/>
<feBlend mode="normal" in="SourceGraphic" in2="BackgroundImageFix" result="shape"/>
<feGaussianBlur stdDeviation="106" result="effect1_foregroundBlur_306_2"/>
</filter>
<filter id="filter5_f_306_2" x="-50.7793" y="-13.9072" width="1090" height="1005.2" filterUnits="userSpaceOnUse" color-interpolation-filters="sRGB">
<feFlood flood-opacity="0" result="BackgroundImageFix"/>
<feBlend mode="normal" in="SourceGraphic" in2="BackgroundImageFix" result="shape"/>
<feGaussianBlur stdDeviation="106" result="effect1_foregroundBlur_306_2"/>
</filter>
<linearGradient id="paint0_linear_306_2" x1="997.352" y1="549.28" x2="825.491" y2="401.244" gradientUnits="userSpaceOnUse">
<stop stop-color="#8DF1FF"/>
<stop offset="1" stop-color="#282361"/>
</linearGradient>
<linearGradient id="paint1_linear_306_2" x1="95.6883" y1="71.0272" x2="200.219" y2="249.572" gradientUnits="userSpaceOnUse">
<stop stop-color="#54205F" stop-opacity="0.71"/>
<stop offset="1" stop-color="#7CCCE3"/>
</linearGradient>
<linearGradient id="paint2_linear_306_2" x1="243.018" y1="0" x2="243.018" y2="483.75" gradientUnits="userSpaceOnUse">
<stop stop-color="#231F60"/>
<stop offset="1" stop-color="#251F61"/>
</linearGradient>
<linearGradient id="paint3_linear_306_2" x1="649.151" y1="-203.684" x2="276.064" y2="529.849" gradientUnits="userSpaceOnUse">
<stop stop-color="#305FDF" stop-opacity="0.14"/>
<stop offset="1" stop-color="#8215A1" stop-opacity="0.78"/>
</linearGradient>
<linearGradient id="paint4_linear_306_2" x1="85.6571" y1="669.75" x2="267.245" y2="434.518" gradientUnits="userSpaceOnUse">
<stop stop-color="#25205F"/>
<stop offset="1" stop-color="#7CCCE3"/>
</linearGradient>
<linearGradient id="paint5_linear_306_2" x1="727.066" y1="489.99" x2="333.244" y2="676.934" gradientUnits="userSpaceOnUse">
<stop stop-color="#86E4F6" stop-opacity="0"/>
<stop offset="1" stop-color="#8C4FB0" stop-opacity="0.51"/>
</linearGradient>
<clipPath id="clip0_306_2">
<rect width="1158" height="697" rx="20" fill="white"/>
</clipPath>
</defs>
</svg>
