<svg width="1379" height="3819" viewBox="0 0 1879 5219" fill="none" xmlns="http://www.w3.org/2000/svg">
<g clip-path="url(#clip0_0_3)">
<path d="M1879 0H-6.10352e-05V5219H1879V0Z" fill="#060928"/>
<path d="M847.126 463.731L678.998 138.636C670.501 122.206 646.234 114.166 624.795 120.677L12.4427 306.672C-8.99579 313.184 -19.4871 331.782 -10.9902 348.211L157.137 673.307C165.634 689.737 189.902 697.777 211.34 691.265L823.693 505.27C845.131 498.759 855.623 480.161 847.126 463.731Z" fill="url(#paint0_radial_0_3)" fill-opacity="0.6"/>
<g style="mix-blend-mode:overlay">
<path d="M846.52 463.916L678.392 138.821C670.028 122.648 646.14 114.733 625.036 121.143L12.6839 307.138C-8.41973 313.548 -18.7471 331.855 -10.383 348.028L157.744 673.124C166.109 689.297 189.997 697.211 211.1 690.801L823.453 504.807C844.557 498.397 854.884 480.089 846.52 463.916Z" stroke="white" stroke-opacity="0.3"/>
</g>
<path d="M796.514 452.622L628.386 127.526C619.89 111.097 595.622 103.057 574.184 109.568L-38.169 295.563C-59.6075 302.075 -70.0989 320.672 -61.602 337.102L106.526 662.198C115.022 678.628 139.29 686.668 160.728 680.156L773.081 494.161C794.52 487.65 805.011 469.052 796.514 452.622Z" fill="url(#paint1_radial_0_3)" fill-opacity="0.6"/>
<g style="mix-blend-mode:overlay">
<path d="M795.908 452.806L627.781 127.711C619.417 111.538 595.528 103.623 574.425 110.033L-37.9279 296.028C-59.0315 302.438 -69.3589 320.745 -60.9948 336.918L107.133 662.014C115.497 678.187 139.385 686.101 160.489 679.691L772.841 493.696C793.945 487.286 804.272 468.979 795.908 452.806Z" stroke="white" stroke-opacity="0.3"/>
</g>
<path d="M2012.37 1080.73L1844.24 755.636C1835.74 739.206 1811.47 731.166 1790.04 737.677L1177.68 923.672C1156.24 930.184 1145.75 948.782 1154.25 965.211L1322.38 1290.31C1330.87 1306.74 1355.14 1314.78 1376.58 1308.27L1988.93 1122.27C2010.37 1115.76 2020.86 1097.16 2012.37 1080.73Z" fill="url(#paint2_linear_0_3)" fill-opacity="0.26"/>
<g style="mix-blend-mode:overlay">
<path d="M2011.76 1080.92L1843.63 755.821C1835.27 739.648 1811.38 731.733 1790.28 738.143L1177.92 924.138C1156.82 930.548 1146.49 948.855 1154.86 965.028L1322.99 1290.12C1331.35 1306.3 1355.24 1314.21 1376.34 1307.8L1988.69 1121.81C2009.8 1115.4 2020.12 1097.09 2011.76 1080.92Z" stroke="white" stroke-opacity="0.3"/>
</g>
<path d="M1961.75 1069.62L1793.62 744.527C1785.13 728.097 1760.86 720.057 1739.42 726.568L1127.07 912.563C1105.63 919.075 1095.14 937.673 1103.64 954.102L1271.76 1279.2C1280.26 1295.63 1304.53 1303.67 1325.97 1297.16L1938.32 1111.16C1959.76 1104.65 1970.25 1086.05 1961.75 1069.62Z" fill="url(#paint3_linear_0_3)" fill-opacity="0.26"/>
<g style="mix-blend-mode:overlay">
<path d="M1961.15 1069.81L1793.02 744.711C1784.65 728.538 1760.77 720.623 1739.66 727.033L1127.31 913.028C1106.21 919.438 1095.88 937.745 1104.24 953.918L1272.37 1279.01C1280.73 1295.19 1304.62 1303.1 1325.73 1296.69L1938.08 1110.7C1959.18 1104.29 1969.51 1085.98 1961.15 1069.81Z" stroke="white" stroke-opacity="0.3"/>
</g>
<path d="M935.99 216.165L1097.72 543.16C1105.9 559.686 1130 568.005 1151.57 561.741L1767.5 382.821C1789.06 376.557 1799.92 358.082 1791.74 341.556L1630.01 14.5606C1621.84 -1.96512 1597.73 -10.2839 1576.17 -4.01989L960.235 174.9C938.671 181.164 927.816 199.639 935.99 216.165Z" fill="url(#paint4_radial_0_3)" fill-opacity="0.7"/>
<g style="mix-blend-mode:overlay">
<path d="M936.599 215.988L1098.33 542.983C1106.38 559.251 1130.11 567.439 1151.34 561.273L1767.27 382.353C1788.49 376.187 1799.18 358.001 1791.13 341.733L1629.4 14.7376C1621.35 -1.52992 1597.62 -9.71871 1576.4 -3.55256L960.465 175.368C939.239 181.534 928.553 199.72 936.599 215.988Z" stroke="white" stroke-opacity="0.3"/>
</g>
<path d="M977.791 231.529L1139.52 558.524C1147.7 575.05 1171.8 583.369 1193.37 577.105L1809.3 398.185C1830.86 391.921 1841.72 373.446 1833.54 356.92L1671.81 29.9246C1663.64 13.3989 1639.53 5.08008 1617.97 11.3441L1002.04 190.264C980.472 196.528 969.617 215.003 977.791 231.529Z" fill="url(#paint5_radial_0_3)" fill-opacity="0.7"/>
<g style="mix-blend-mode:overlay">
<path d="M978.4 231.352L1140.13 558.347C1148.18 574.615 1171.91 582.803 1193.14 576.637L1809.07 397.717C1830.29 391.551 1840.98 373.365 1832.93 357.097L1671.2 30.1016C1663.16 13.8341 1639.42 5.64527 1618.2 11.8114L1002.27 190.732C981.04 196.898 970.355 215.084 978.4 231.352Z" stroke="white" stroke-opacity="0.3"/>
</g>
<path d="M520.138 425.58L446.451 770.688C442.727 788.129 458.157 804.582 480.916 807.435L1130.96 888.953C1153.72 891.807 1175.19 879.982 1178.91 862.541L1252.6 517.432C1256.33 499.991 1240.9 483.539 1218.14 480.685L568.088 399.167C545.33 396.313 523.862 408.139 520.138 425.58Z" fill="url(#paint6_radial_0_3)" fill-opacity="0.6"/>
<g style="mix-blend-mode:overlay">
<path d="M520.781 425.66L447.095 770.768C443.429 787.937 458.618 804.132 481.021 806.942L1131.07 888.459C1153.47 891.269 1174.6 879.628 1178.27 862.46L1251.96 517.351C1255.62 500.183 1240.43 483.987 1218.03 481.178L567.983 399.66C545.58 396.851 524.447 408.491 520.781 425.66Z" stroke="white" stroke-opacity="0.3"/>
</g>
<path d="M556.113 455.038L482.426 800.146C478.702 817.587 494.132 834.04 516.891 836.893L1166.94 918.411C1189.7 921.265 1211.17 909.44 1214.89 891.999L1288.58 546.89C1292.3 529.449 1276.87 512.997 1254.11 510.143L604.063 428.625C581.305 425.771 559.837 437.597 556.113 455.038Z" fill="url(#paint7_radial_0_3)" fill-opacity="0.6"/>
<g style="mix-blend-mode:overlay">
<path d="M556.756 455.119L483.07 800.227C479.404 817.396 494.593 833.591 516.996 836.401L1167.04 917.918C1189.45 920.728 1210.58 909.087 1214.25 891.919L1287.93 546.81C1291.6 529.642 1276.41 513.446 1254.01 510.637L603.958 429.119C581.555 426.31 560.422 437.951 556.756 455.119Z" stroke="white" stroke-opacity="0.3"/>
</g>
<g filter="url(#filter0_f_0_3)">
<path d="M1060.78 863.077C1063 1169.09 743.827 1418.52 347.877 1420.21C-48.0724 1421.9 -370.855 1175.2 -373.08 869.196C-375.303 563.188 -56.1246 313.749 339.825 312.06C735.774 310.37 1058.56 557.069 1060.78 863.077Z" fill="url(#paint8_linear_0_3)"/>
</g>
<g filter="url(#filter1_f_0_3)">
<path d="M911.36 282.085C699.174 312.509 569.56 510.84 621.86 725.07C674.16 939.301 888.568 1088.31 1100.75 1057.88C1312.94 1027.46 1442.55 829.128 1390.25 614.898C1337.95 400.667 1123.55 251.662 911.36 282.085Z" fill="url(#paint9_linear_0_3)"/>
</g>
<g filter="url(#filter2_f_0_3)">
<path d="M2164.25 940.132C2378.78 747.603 2323.69 441.665 2041.2 256.799C1758.71 71.9339 1355.8 78.1466 1141.27 270.676C926.747 463.205 981.841 769.143 1264.33 954.009C1546.82 1138.87 1949.73 1132.66 2164.25 940.132Z" fill="url(#paint10_linear_0_3)"/>
</g>
<g filter="url(#filter3_f_0_3)">
<path d="M2156.54 1076.47C2350.41 888.491 2275.46 595.496 1989.11 422.05C1702.77 248.605 1313.48 260.389 1119.6 448.371C925.727 636.353 1000.69 929.348 1287.03 1102.79C1573.37 1276.24 1962.66 1264.46 2156.54 1076.47Z" fill="url(#paint11_linear_0_3)" fill-opacity="0.72"/>
</g>
<g filter="url(#filter4_f_0_3)">
<path d="M1861.93 540.238C1584.56 700.868 1205.32 674.521 1014.88 481.39C824.444 288.259 894.922 1.47803 1172.3 -159.153C1449.67 -319.783 1828.92 -293.436 2019.35 -100.305C2209.78 92.8265 2139.31 379.607 1861.93 540.238Z" fill="url(#paint12_linear_0_3)"/>
</g>
<g filter="url(#filter5_f_0_3)">
<path d="M1143.73 354.185C1422.97 171.421 1474.64 -133.497 1259.15 -326.869C1043.66 -520.241 642.605 -528.841 363.369 -346.077C84.1341 -163.313 32.46 141.605 247.952 334.977C463.444 528.349 864.499 536.949 1143.73 354.185Z" fill="url(#paint13_linear_0_3)"/>
</g>
<path d="M-36.757 969.718L-167.989 1221.68C-176.538 1238.09 -166.106 1256.71 -144.688 1263.26L346.426 1413.49C367.843 1420.05 392.136 1412.05 400.685 1395.64L531.918 1143.68C540.467 1127.26 530.035 1108.64 508.617 1102.09L17.5028 951.861C-3.91503 945.31 -28.2079 953.305 -36.757 969.718Z" fill="url(#paint14_linear_0_3)" fill-opacity="0.16"/>
<g style="mix-blend-mode:overlay">
<path d="M-36.1507 969.903L-167.383 1221.86C-175.799 1238.02 -165.529 1256.35 -144.446 1262.8L346.668 1413.03C367.751 1419.48 391.665 1411.61 400.08 1395.45L531.312 1143.49C539.728 1127.33 529.459 1109.01 508.375 1102.56L17.2612 952.325C-3.8219 945.875 -27.7352 953.745 -36.1507 969.903Z" stroke="white" stroke-opacity="0.03"/>
</g>
<path d="M-14.4491 998.028L-145.681 1249.99C-154.231 1266.4 -143.798 1285.02 -122.381 1291.57L368.734 1441.8C390.152 1448.36 414.444 1440.36 422.993 1423.95L554.226 1171.99C562.775 1155.57 552.343 1136.95 530.925 1130.4L39.8106 980.171C18.3929 973.62 -5.90006 981.615 -14.4491 998.028Z" fill="url(#paint15_linear_0_3)" fill-opacity="0.16"/>
<g style="mix-blend-mode:overlay">
<path d="M-13.8427 998.213L-145.075 1250.17C-153.491 1266.33 -143.221 1284.66 -122.138 1291.11L368.976 1441.34C390.059 1447.79 413.972 1439.92 422.388 1423.76L553.62 1171.8C562.036 1155.64 551.766 1137.32 530.683 1130.87L39.5692 980.635C18.4861 974.186 -5.42724 982.056 -13.8427 998.213Z" stroke="white" stroke-opacity="0.03"/>
</g>
<path d="M1897.27 1594H-35.2313V5219H1897.27V1594Z" fill="white"/>
<path d="M567.898 3783.34L451.703 3558.66C443.206 3542.23 418.939 3534.19 397.5 3540.7L-34.6961 3671.97C-56.1347 3678.49 -66.626 3697.08 -58.1291 3713.51L58.066 3938.19C66.5629 3954.62 90.8304 3962.66 112.269 3956.15L544.465 3824.88C565.904 3818.36 576.395 3799.77 567.898 3783.34Z" fill="url(#paint16_radial_0_3)" fill-opacity="0.3"/>
<g style="mix-blend-mode:overlay">
<path d="M567.291 3783.52L451.096 3558.84C442.732 3542.67 418.843 3534.76 397.74 3541.17L-34.4561 3672.44C-55.5597 3678.85 -65.8871 3697.16 -57.523 3713.33L58.6722 3938.01C67.0363 3954.18 90.9245 3962.1 112.028 3955.69L544.224 3824.41C565.328 3818 575.655 3799.69 567.291 3783.52Z" stroke="white" stroke-opacity="0.3"/>
</g>
<path d="M530.501 3775.13L414.306 3550.45C405.809 3534.02 381.541 3525.98 360.103 3532.49L-72.0935 3663.76C-93.532 3670.28 -104.023 3688.87 -95.5265 3705.3L20.6687 3929.98C29.1656 3946.41 53.433 3954.45 74.8716 3947.94L507.068 3816.67C528.506 3810.15 538.998 3791.56 530.501 3775.13Z" fill="url(#paint17_radial_0_3)" fill-opacity="0.3"/>
<g style="mix-blend-mode:overlay">
<path d="M529.894 3775.31L413.698 3550.63C405.334 3534.46 381.446 3526.55 360.343 3532.96L-71.8535 3664.23C-92.9571 3670.64 -103.284 3688.95 -94.9204 3705.12L21.2748 3929.8C29.6389 3945.97 53.5272 3953.89 74.6308 3947.48L506.827 3816.2C527.93 3809.79 538.258 3791.49 529.894 3775.31Z" stroke="white" stroke-opacity="0.3"/>
</g>
<path d="M1981.06 4722.64L1864.87 4497.96C1856.37 4481.53 1832.1 4473.49 1810.67 4480L1378.47 4611.27C1357.03 4617.79 1346.54 4636.38 1355.04 4652.81L1471.23 4877.49C1479.73 4893.92 1504 4901.96 1525.43 4895.45L1957.63 4764.18C1979.07 4757.66 1989.56 4739.07 1981.06 4722.64Z" fill="url(#paint18_radial_0_3)" fill-opacity="0.3"/>
<g style="mix-blend-mode:overlay">
<path d="M1980.46 4722.82L1864.26 4498.14C1855.9 4481.97 1832.01 4474.06 1810.91 4480.47L1378.71 4611.74C1357.61 4618.15 1347.28 4636.46 1355.64 4652.63L1471.84 4877.31C1480.2 4893.48 1504.09 4901.4 1525.2 4894.99L1957.39 4763.71C1978.5 4757.3 1988.82 4738.99 1980.46 4722.82Z" stroke="white" stroke-opacity="0.3"/>
</g>
<path d="M1943.67 4714.43L1827.47 4489.75C1818.97 4473.32 1794.71 4465.28 1773.27 4471.79L1341.07 4603.06C1319.63 4609.58 1309.14 4628.17 1317.64 4644.6L1433.83 4869.28C1442.33 4885.71 1466.6 4893.75 1488.04 4887.24L1920.23 4755.97C1941.67 4749.45 1952.16 4730.86 1943.67 4714.43Z" fill="url(#paint19_radial_0_3)" fill-opacity="0.3"/>
<g style="mix-blend-mode:overlay">
<path d="M1943.06 4714.61L1826.87 4489.93C1818.5 4473.76 1794.61 4465.85 1773.51 4472.26L1341.31 4603.53C1320.21 4609.94 1309.88 4628.25 1318.25 4644.42L1434.44 4869.1C1442.81 4885.27 1466.69 4893.19 1487.8 4886.78L1919.99 4755.5C1941.1 4749.09 1951.43 4730.78 1943.06 4714.61Z" stroke="white" stroke-opacity="0.3"/>
</g>
<path d="M1740.68 3894.92L1628.91 4120.92C1620.74 4137.44 1631.59 4155.92 1653.16 4162.18L2087.88 4288.45C2109.45 4294.72 2133.55 4286.4 2141.73 4269.87L2253.5 4043.88C2261.67 4027.35 2250.81 4008.88 2229.25 4002.62L1794.52 3876.34C1772.96 3870.08 1748.85 3878.4 1740.68 3894.92Z" fill="url(#paint20_radial_0_3)" fill-opacity="0.3"/>
<g style="mix-blend-mode:overlay">
<path d="M1741.3 3895.1L1629.53 4121.09C1621.48 4137.36 1632.17 4155.55 1653.4 4161.71L2088.12 4287.99C2109.35 4294.15 2133.08 4285.96 2141.12 4269.7L2252.89 4043.7C2260.94 4027.44 2250.25 4009.25 2229.03 4003.08L1794.3 3876.81C1773.07 3870.64 1749.34 3878.83 1741.3 3895.1Z" stroke="white" stroke-opacity="0.3"/>
</g>
<path d="M1715.89 3857.92L1604.12 4083.92C1595.95 4100.44 1606.8 4118.92 1628.37 4125.18L2063.09 4251.45C2084.66 4257.72 2108.76 4249.4 2116.94 4232.87L2228.7 4006.88C2236.88 3990.35 2226.02 3971.88 2204.46 3965.62L1769.73 3839.34C1748.17 3833.08 1724.06 3841.4 1715.89 3857.92Z" fill="url(#paint21_radial_0_3)" fill-opacity="0.3"/>
<g style="mix-blend-mode:overlay">
<path d="M1716.5 3858.1L1604.74 4084.09C1596.69 4100.36 1607.38 4118.55 1628.6 4124.71L2063.33 4250.99C2084.56 4257.15 2108.29 4248.96 2116.33 4232.7L2228.1 4006.7C2236.15 3990.44 2225.46 3972.25 2204.23 3966.08L1769.51 3839.81C1748.28 3833.64 1724.55 3841.83 1716.5 3858.1Z" stroke="white" stroke-opacity="0.3"/>
</g>
<path d="M178.898 4684.47L250.095 4536.48C258.073 4519.9 246.999 4501.5 225.362 4495.39L-69.5131 4412.07C-91.1503 4405.96 -115.158 4414.44 -123.135 4431.02L-194.332 4579.01C-202.31 4595.59 -191.237 4613.99 -169.6 4620.11L125.276 4703.43C146.913 4709.54 170.92 4701.05 178.898 4684.47Z" fill="url(#paint22_radial_0_3)" fill-opacity="0.3"/>
<g style="mix-blend-mode:overlay">
<path d="M178.286 4684.3L249.483 4536.31C257.336 4519.99 246.436 4501.88 225.137 4495.86L-69.7385 4412.54C-91.0376 4406.52 -114.67 4414.88 -122.523 4431.2L-193.72 4579.19C-201.573 4595.51 -190.673 4613.62 -169.374 4619.64L125.502 4702.96C146.801 4708.98 170.433 4700.62 178.286 4684.3Z" stroke="white" stroke-opacity="0.3"/>
</g>
<path d="M134.533 4713.47L205.73 4565.48C213.707 4548.9 202.634 4530.5 180.997 4524.39L-113.879 4441.07C-135.516 4434.96 -159.523 4443.44 -167.501 4460.02L-238.698 4608.01C-246.675 4624.59 -235.602 4642.99 -213.965 4649.11L80.9103 4732.43C102.547 4738.54 126.555 4730.05 134.533 4713.47Z" fill="url(#paint23_radial_0_3)" fill-opacity="0.3"/>
<g style="mix-blend-mode:overlay">
<path d="M133.921 4713.3L205.118 4565.31C212.971 4548.99 202.071 4530.88 180.772 4524.86L-114.104 4441.54C-135.403 4435.52 -159.035 4443.88 -166.888 4460.2L-238.085 4608.19C-245.938 4624.51 -235.038 4642.62 -213.739 4648.64L81.1363 4731.96C102.435 4737.98 126.068 4729.62 133.921 4713.3Z" stroke="white" stroke-opacity="0.3"/>
</g>
<path d="M390.122 4088.2L148.479 4226.03C129.98 4236.59 103.821 4233.65 90.0522 4219.47L-187.527 3933.66C-201.296 3919.48 -197.462 3899.44 -178.962 3888.88L62.68 3751.05C81.1793 3740.5 107.338 3743.44 121.107 3757.61L398.686 4043.42C412.455 4057.6 408.621 4077.65 390.122 4088.2Z" fill="url(#paint24_radial_0_3)" fill-opacity="0.3"/>
<g style="mix-blend-mode:overlay">
<path d="M389.732 4087.8L148.09 4225.63C129.879 4236.02 104.13 4233.13 90.5757 4219.17L-187.004 3933.36C-200.558 3919.41 -196.783 3899.67 -178.573 3889.29L63.0696 3751.45C81.2799 3741.06 107.03 3743.96 120.584 3757.91L398.163 4043.72C411.717 4057.68 407.942 4077.41 389.732 4087.8Z" stroke="white" stroke-opacity="0.3"/>
</g>
<path d="M353.354 4079.73L111.711 4217.56C93.2118 4228.12 67.0532 4225.18 53.2842 4211L-224.295 3925.19C-238.064 3911.01 -234.23 3890.97 -215.731 3880.41L25.912 3742.58C44.4112 3732.03 70.5699 3734.97 84.3388 3749.14L361.918 4034.95C375.687 4049.13 371.853 4069.18 353.354 4079.73Z" fill="url(#paint25_radial_0_3)" fill-opacity="0.3"/>
<g style="mix-blend-mode:overlay">
<path d="M352.964 4079.33L111.322 4217.16C93.1113 4227.55 67.3614 4224.66 53.8076 4210.7L-223.772 3924.89C-237.326 3910.94 -233.551 3891.2 -215.341 3880.82L26.3016 3742.98C44.5118 3732.59 70.2617 3735.49 83.8155 3749.44L361.395 4035.25C374.949 4049.21 371.174 4068.94 352.964 4079.33Z" stroke="white" stroke-opacity="0.3"/>
</g>
<g filter="url(#filter6_f_0_3)">
<path d="M1914.47 2927.02C2009.22 2844.63 2029.74 2739.82 1960.3 2692.92C1890.87 2646.02 1757.77 2674.79 1663.02 2757.18C1568.27 2839.57 1547.75 2944.39 1617.18 2991.28C1686.62 3038.18 1819.72 3009.41 1914.47 2927.02Z" fill="url(#paint26_linear_0_3)"/>
</g>
<g filter="url(#filter7_f_0_3)">
<path d="M-146.739 2362.21C-392.874 2451.79 -521.083 2639.5 -433.102 2781.48C-345.121 2923.45 -74.2659 2965.92 171.869 2876.33C418.004 2786.75 546.213 2599.04 458.231 2457.06C370.25 2315.09 99.3955 2272.62 -146.739 2362.21Z" fill="url(#paint27_linear_0_3)" fill-opacity="0.72"/>
</g>
<path d="M1429.67 3052.97L1554.41 3274.94C1563.53 3291.17 1588.09 3298.66 1609.27 3291.67L2036.26 3150.75C2057.45 3143.76 2067.22 3124.94 2058.1 3108.7L1933.37 2886.73C1924.24 2870.5 1899.68 2863.01 1878.5 2870L1451.51 3010.92C1430.33 3017.91 1420.55 3036.73 1429.67 3052.97Z" fill="url(#paint28_radial_0_3)" fill-opacity="0.3"/>
<g style="mix-blend-mode:overlay">
<path d="M1430.28 3052.77L1555.02 3274.74C1564 3290.72 1588.18 3298.09 1609.03 3291.21L2036.02 3150.29C2056.87 3143.41 2066.49 3124.88 2057.51 3108.9L1932.78 2886.93C1923.8 2870.95 1899.62 2863.57 1878.77 2870.45L1451.78 3011.38C1430.93 3018.26 1421.3 3036.79 1430.28 3052.77Z" stroke="white" stroke-opacity="0.3"/>
</g>
<path d="M1467.37 3060.34L1592.1 3282.31C1601.23 3298.54 1625.79 3306.03 1646.97 3299.04L2073.96 3158.12C2095.14 3151.13 2104.92 3132.31 2095.8 3116.07L1971.06 2894.1C1961.94 2877.87 1937.38 2870.38 1916.2 2877.37L1489.2 3018.29C1468.02 3025.28 1458.25 3044.1 1467.37 3060.34Z" fill="url(#paint29_radial_0_3)" fill-opacity="0.3"/>
<g style="mix-blend-mode:overlay">
<path d="M1467.97 3060.14L1592.7 3282.11C1601.68 3298.09 1625.86 3305.46 1646.71 3298.58L2073.7 3157.66C2094.55 3150.78 2104.18 3132.25 2095.2 3116.27L1970.46 2894.3C1961.48 2878.32 1937.3 2870.94 1916.45 2877.82L1489.46 3018.75C1468.61 3025.63 1458.99 3044.16 1467.97 3060.14Z" stroke="white" stroke-opacity="0.3"/>
</g>
<path d="M-69.8982 2932.51L-126.109 3068.82C-133.059 3085.67 -120.867 3103.65 -98.8779 3108.97L153.855 3170.19C175.844 3175.51 199.304 3166.17 206.253 3149.32L262.464 3013.01C269.413 2996.16 257.222 2978.18 235.233 2972.86L-17.5005 2911.64C-39.4895 2906.32 -62.9487 2915.66 -69.8982 2932.51Z" fill="url(#paint30_radial_0_3)" fill-opacity="0.3"/>
<g style="mix-blend-mode:overlay">
<path d="M-69.2767 2932.66L-125.488 3068.96C-132.329 3085.55 -120.327 3103.25 -98.6819 3108.49L154.051 3169.71C175.697 3174.95 198.789 3165.75 205.63 3149.16L261.841 3012.86C268.682 2996.27 256.681 2978.57 235.035 2973.33L-17.6978 2912.12C-39.3431 2906.88 -62.4358 2916.07 -69.2767 2932.66Z" stroke="white" stroke-opacity="0.3"/>
</g>
<path d="M-56.062 2948.78L-112.273 3085.09C-119.223 3101.94 -107.031 3119.92 -85.0418 3125.24L167.692 3186.46C189.68 3191.78 213.14 3182.44 220.089 3165.59L276.3 3029.28C283.25 3012.43 271.058 2994.45 249.069 2989.13L-3.66442 2927.91C-25.6533 2922.59 -49.1125 2931.93 -56.062 2948.78Z" fill="url(#paint31_radial_0_3)" fill-opacity="0.3"/>
<g style="mix-blend-mode:overlay">
<path d="M-55.4401 2948.93L-111.651 3085.23C-118.492 3101.82 -106.491 3119.52 -84.8453 3124.76L167.888 3185.98C189.533 3191.22 212.626 3182.02 219.467 3165.43L275.678 3029.13C282.519 3012.54 270.517 2994.84 248.872 2989.6L-3.8612 2928.39C-25.5065 2923.15 -48.5992 2932.34 -55.4401 2948.93Z" stroke="white" stroke-opacity="0.3"/>
</g>
<path d="M1717.67 1637.96L1581.03 1768.5C1566.6 1782.28 1569.48 1802.42 1587.47 1813.48L1846.09 1972.48C1864.08 1983.53 1890.36 1981.32 1904.79 1967.54L2041.43 1837C2055.86 1823.21 2052.98 1803.07 2034.99 1792.01L1776.37 1633.02C1758.38 1621.96 1732.1 1624.17 1717.67 1637.96Z" fill="url(#paint32_radial_0_3)" fill-opacity="0.3"/>
<g style="mix-blend-mode:overlay">
<path d="M1718.17 1638.28L1581.53 1768.82C1567.33 1782.39 1570.17 1802.21 1587.87 1813.1L1846.5 1972.09C1864.2 1982.98 1890.07 1980.8 1904.28 1967.23L2040.92 1836.69C2055.12 1823.12 2052.28 1803.3 2034.58 1792.41L1775.95 1633.42C1758.25 1622.53 1732.38 1624.71 1718.17 1638.28Z" stroke="white" stroke-opacity="0.3"/>
</g>
<path d="M1724.61 1659.89L1587.97 1790.43C1573.54 1804.21 1576.42 1824.35 1594.41 1835.41L1853.03 1994.41C1871.02 2005.46 1897.3 2003.25 1911.73 1989.47L2048.37 1858.93C2062.8 1845.14 2059.92 1825 2041.93 1813.94L1783.31 1654.95C1765.32 1643.89 1739.04 1646.1 1724.61 1659.89Z" fill="url(#paint33_radial_0_3)" fill-opacity="0.3"/>
<g style="mix-blend-mode:overlay">
<path d="M1725.13 1660.2L1588.49 1790.74C1574.28 1804.31 1577.12 1824.13 1594.83 1835.02L1853.45 1994.01C1871.16 2004.9 1897.03 2002.72 1911.23 1989.15L2047.87 1858.61C2062.08 1845.04 2059.24 1825.22 2041.53 1814.33L1782.91 1655.34C1765.2 1644.45 1739.33 1646.63 1725.13 1660.2Z" stroke="white" stroke-opacity="0.3"/>
</g>
<path d="M204.09 1729.16L142.903 1658.12C130.2 1643.37 104.299 1639.3 85.0525 1649.04L-60.619 1722.72C-79.8658 1732.45 -85.1705 1752.3 -72.4673 1767.05L-11.2803 1838.1C1.42279 1852.85 27.3233 1856.92 46.5701 1847.18L192.242 1773.5C211.488 1763.76 216.793 1743.91 204.09 1729.16Z" fill="url(#paint34_radial_0_3)" fill-opacity="0.3"/>
<g style="mix-blend-mode:overlay">
<path d="M203.545 1729.44L142.358 1658.39C129.854 1643.87 104.358 1639.87 85.4119 1649.45L-60.2595 1723.13C-79.2056 1732.72 -84.4274 1752.26 -71.9228 1766.78L-10.7357 1837.82C1.76888 1852.34 27.2647 1856.34 46.2107 1846.76L191.882 1773.08C210.828 1763.5 216.05 1743.96 203.545 1729.44Z" stroke="white" stroke-opacity="0.3"/>
</g>
<path d="M185.608 1727.87L124.421 1656.83C111.718 1642.08 85.8172 1638.01 66.5704 1647.75L-79.1011 1721.43C-98.3479 1731.16 -103.653 1751.01 -90.9494 1765.76L-29.7624 1836.81C-17.0593 1851.56 8.84121 1855.63 28.088 1845.89L173.759 1772.21C193.006 1762.47 198.311 1742.62 185.608 1727.87Z" fill="url(#paint35_radial_0_3)" fill-opacity="0.3"/>
<g style="mix-blend-mode:overlay">
<path d="M185.063 1728.15L123.876 1657.1C111.372 1642.58 85.8757 1638.58 66.9296 1648.16L-78.7419 1721.84C-97.6879 1731.43 -102.91 1750.97 -90.4051 1765.49L-29.2181 1836.53C-16.7134 1851.05 8.78236 1855.05 27.7284 1845.47L173.4 1771.79C192.346 1762.21 197.568 1742.67 185.063 1728.15Z" stroke="white" stroke-opacity="0.3"/>
</g>
<g filter="url(#filter8_f_0_3)">
<path d="M1713.99 2011.17C1888.79 2014.92 2034.43 1910.2 2039.29 1777.27C2044.15 1644.35 1906.39 1533.54 1731.6 1529.79C1556.8 1526.04 1411.16 1630.76 1406.3 1763.69C1401.44 1896.61 1539.2 2007.41 1713.99 2011.17Z" fill="url(#paint36_linear_0_3)" fill-opacity="0.23"/>
</g>
<path d="M600.888 4108.5H688.314" stroke="white" stroke-width="3" stroke-linecap="round"/>
<path d="M191.162 4108.5H278.588" stroke="white" stroke-width="3" stroke-linecap="round"/>
<path d="M290.305 4108.04C290.305 4105.32 291.124 4102.88 292.759 4100.72C294.429 4098.56 296.673 4096.88 299.492 4095.68C302.345 4094.45 305.459 4093.84 308.834 4093.84C312.697 4093.84 316.125 4094.57 319.117 4096.04C322.144 4097.48 324.336 4099.53 325.693 4102.2H318.543C317.603 4100.73 316.298 4099.64 314.628 4098.92C312.958 4098.2 311.027 4097.84 308.834 4097.84C306.433 4097.84 304.294 4098.25 302.415 4099.08C300.536 4099.91 299.057 4101.09 297.978 4102.64C296.934 4104.19 296.412 4105.99 296.412 4108.04C296.412 4110.09 296.934 4111.89 297.978 4113.44C299.057 4114.99 300.536 4116.19 302.415 4117.04C304.294 4117.87 306.433 4118.28 308.834 4118.28C311.027 4118.28 312.958 4117.92 314.628 4117.2C316.298 4116.48 317.603 4115.39 318.543 4113.92H325.693C324.336 4116.59 322.144 4118.64 319.117 4120.08C316.125 4121.52 312.697 4122.24 308.834 4122.24C305.425 4122.24 302.31 4121.64 299.492 4120.44C296.673 4119.21 294.429 4117.52 292.759 4115.36C291.124 4113.2 290.305 4110.76 290.305 4108.04ZM346.176 4122.36C343.462 4122.36 341.008 4121.89 338.816 4120.96C336.624 4120 334.902 4118.67 333.649 4116.96C332.396 4115.23 331.77 4113.23 331.77 4110.96C331.77 4108.72 332.415 4106.73 333.701 4105C334.989 4103.27 336.747 4101.93 338.973 4101C341.2 4100.07 343.689 4099.6 346.437 4099.6C349.186 4099.6 351.674 4100.07 353.9 4101C356.128 4101.93 357.885 4103.27 359.173 4105C360.46 4106.73 361.105 4108.72 361.105 4110.96C361.105 4113.2 360.443 4115.19 359.121 4116.92C357.798 4118.65 355.99 4120 353.693 4120.96C351.43 4121.89 348.925 4122.36 346.176 4122.36ZM346.176 4118.4C347.708 4118.4 349.134 4118.12 350.457 4117.56C351.814 4117 352.91 4116.16 353.745 4115.04C354.579 4113.92 354.997 4112.56 354.997 4110.96C354.997 4109.36 354.597 4108.01 353.796 4106.92C352.996 4105.8 351.935 4104.96 350.612 4104.4C349.29 4103.84 347.864 4103.56 346.332 4103.56C344.802 4103.56 343.375 4103.84 342.052 4104.4C340.766 4104.96 339.739 4105.8 338.973 4106.92C338.208 4108.01 337.825 4109.36 337.825 4110.96C337.825 4113.33 338.607 4115.17 340.173 4116.48C341.774 4117.76 343.775 4118.4 346.176 4118.4ZM382.54 4099.6C384.802 4099.6 386.819 4099.96 388.594 4100.68C390.404 4101.4 391.813 4102.47 392.822 4103.88C393.832 4105.29 394.335 4107 394.335 4109V4122H388.438V4109.68C388.438 4107.71 387.794 4106.2 386.506 4105.16C385.22 4104.09 383.462 4103.56 381.235 4103.56C379.009 4103.56 377.234 4104.09 375.911 4105.16C374.624 4106.2 373.98 4107.71 373.98 4109.68V4122H368.029V4099.96H373.98V4102.48C374.954 4101.57 376.19 4100.87 377.685 4100.36C379.217 4099.85 380.835 4099.6 382.54 4099.6ZM409.912 4103.68V4115.88C409.912 4116.71 410.156 4117.31 410.642 4117.68C411.164 4118.03 412.035 4118.2 413.252 4118.2H416.906V4122H412.208C409.529 4122 407.475 4121.52 406.049 4120.56C404.623 4119.6 403.909 4118.04 403.909 4115.88V4103.68H400.517V4099.96H403.909V4094.48H409.912V4099.96H416.906V4103.68H409.912ZM421.45 4110.88C421.45 4108.67 422.042 4106.71 423.225 4105C424.443 4103.29 426.078 4101.97 428.131 4101.04C430.219 4100.08 432.516 4099.6 435.021 4099.6C437.282 4099.6 439.249 4099.95 440.919 4100.64C442.623 4101.31 443.98 4102.15 444.99 4103.16V4099.96H450.993V4122H444.99V4118.72C443.98 4119.76 442.606 4120.63 440.867 4121.32C439.126 4122.01 437.143 4122.36 434.917 4122.36C432.445 4122.36 430.184 4121.88 428.131 4120.92C426.078 4119.93 424.443 4118.57 423.225 4116.84C422.042 4115.08 421.45 4113.09 421.45 4110.88ZM444.99 4110.96C444.99 4109.44 444.573 4108.12 443.738 4107C442.936 4105.88 441.875 4105.03 440.554 4104.44C439.231 4103.85 437.804 4103.56 436.274 4103.56C434.742 4103.56 433.316 4103.85 431.994 4104.44C430.671 4105 429.593 4105.84 428.758 4106.96C427.957 4108.05 427.557 4109.36 427.557 4110.88C427.557 4112.4 427.957 4113.73 428.758 4114.88C429.593 4116.03 430.671 4116.91 431.994 4117.52C433.351 4118.11 434.777 4118.4 436.274 4118.4C437.804 4118.4 439.231 4118.11 440.554 4117.52C441.875 4116.93 442.936 4116.08 443.738 4114.96C444.573 4113.81 444.99 4112.48 444.99 4110.96ZM457.868 4110.96C457.868 4108.69 458.459 4106.71 459.642 4105C460.86 4103.27 462.53 4101.93 464.653 4101C466.776 4100.07 469.211 4099.6 471.96 4099.6C475.44 4099.6 478.311 4100.24 480.572 4101.52C482.869 4102.77 484.418 4104.57 485.218 4106.92H478.798C478.276 4105.83 477.441 4104.97 476.292 4104.36C475.144 4103.75 473.7 4103.44 471.96 4103.44C469.524 4103.44 467.576 4104.11 466.115 4105.44C464.688 4106.75 463.975 4108.59 463.975 4110.96C463.975 4113.33 464.688 4115.19 466.115 4116.52C467.576 4117.85 469.524 4118.52 471.96 4118.52C475.405 4118.52 477.685 4117.36 478.798 4115.04H485.218C484.383 4117.28 482.817 4119.07 480.52 4120.4C478.224 4121.71 475.37 4122.36 471.96 4122.36C469.211 4122.36 466.776 4121.89 464.653 4120.96C462.53 4120 460.86 4118.67 459.642 4116.96C458.459 4115.23 457.868 4113.23 457.868 4110.96ZM499.133 4103.68V4115.88C499.133 4116.71 499.377 4117.31 499.864 4117.68C500.385 4118.03 501.256 4118.2 502.473 4118.2H506.127V4122H501.429C498.75 4122 496.698 4121.52 495.27 4120.56C493.844 4119.6 493.13 4118.04 493.13 4115.88V4103.68H489.738V4099.96H493.13V4094.48H499.133V4099.96H506.127V4103.68H499.133ZM533.156 4094.2V4111.92C533.156 4114.03 533.869 4115.61 535.296 4116.68C536.757 4117.75 538.776 4118.28 541.35 4118.28C543.96 4118.28 545.979 4117.75 547.405 4116.68C548.866 4115.61 549.597 4114.03 549.597 4111.92V4094.2H555.547V4111.84C555.547 4114.11 554.904 4116.03 553.616 4117.6C552.328 4119.17 550.606 4120.35 548.449 4121.12C546.292 4121.89 543.908 4122.28 541.298 4122.28C538.688 4122.28 536.304 4121.89 534.147 4121.12C532.024 4120.35 530.337 4119.17 529.085 4117.6C527.832 4116.03 527.206 4114.11 527.206 4111.84V4094.2H533.156ZM574.777 4122.36C572.516 4122.36 570.48 4122.05 568.67 4121.44C566.896 4120.8 565.486 4119.95 564.442 4118.88C563.398 4117.79 562.841 4116.57 562.772 4115.24H568.931C569.035 4116.17 569.61 4116.96 570.654 4117.6C571.733 4118.21 573.071 4118.52 574.672 4118.52C576.343 4118.52 577.631 4118.28 578.535 4117.8C579.474 4117.29 579.944 4116.65 579.944 4115.88C579.944 4115.05 579.422 4114.44 578.378 4114.04C577.37 4113.64 575.752 4113.2 573.524 4112.72C571.367 4112.27 569.61 4111.83 568.253 4111.4C566.896 4110.97 565.712 4110.32 564.703 4109.44C563.729 4108.56 563.242 4107.4 563.242 4105.96C563.242 4104.79 563.695 4103.72 564.599 4102.76C565.503 4101.77 566.791 4101 568.461 4100.44C570.167 4099.88 572.115 4099.6 574.307 4099.6C577.578 4099.6 580.205 4100.24 582.189 4101.52C584.207 4102.77 585.285 4104.49 585.425 4106.68H579.474C579.37 4105.69 578.848 4104.91 577.909 4104.32C576.969 4103.73 575.699 4103.44 574.098 4103.44C572.533 4103.44 571.332 4103.67 570.497 4104.12C569.662 4104.57 569.244 4105.17 569.244 4105.92C569.244 4106.51 569.522 4107 570.079 4107.4C570.637 4107.8 571.315 4108.12 572.115 4108.36C572.915 4108.57 574.098 4108.85 575.664 4109.2C577.752 4109.63 579.457 4110.07 580.779 4110.52C582.136 4110.95 583.302 4111.59 584.276 4112.44C585.251 4113.29 585.755 4114.43 585.79 4115.84C585.79 4117.09 585.337 4118.21 584.433 4119.2C583.529 4120.19 582.241 4120.96 580.57 4121.52C578.935 4122.08 577.004 4122.36 574.777 4122.36Z" fill="white"/>
<path d="M345.955 4206.02C345.523 4206.02 345.162 4205.9 344.869 4205.68C344.577 4205.46 344.431 4205.18 344.431 4204.85C344.431 4204.52 344.577 4204.24 344.869 4204.02C345.162 4203.79 345.523 4203.68 345.955 4203.68C346.373 4203.68 346.728 4203.79 347.02 4204.02C347.312 4204.24 347.458 4204.52 347.458 4204.85C347.458 4205.18 347.312 4205.46 347.02 4205.68C346.728 4205.9 346.373 4206.02 345.955 4206.02ZM347.124 4207.18V4216H344.744V4207.18H347.124ZM357.932 4207.04C358.837 4207.04 359.644 4207.18 360.354 4207.47C361.077 4207.76 361.641 4208.19 362.045 4208.75C362.449 4209.32 362.651 4210 362.651 4210.8V4216H360.292V4211.07C360.292 4210.28 360.033 4209.68 359.519 4209.26C359.004 4208.84 358.3 4208.62 357.411 4208.62C356.519 4208.62 355.809 4208.84 355.281 4209.26C354.766 4209.68 354.509 4210.28 354.509 4211.07V4216H352.128V4207.18H354.509V4208.19C354.897 4207.83 355.392 4207.55 355.991 4207.34C356.603 4207.14 357.25 4207.04 357.932 4207.04ZM372.388 4208.67H370.258V4216H367.857V4208.67H366.5V4207.18H367.857V4206.56C367.857 4205.55 368.206 4204.81 368.901 4204.35C369.611 4203.88 370.717 4203.65 372.221 4203.65V4205.17C371.498 4205.17 370.989 4205.27 370.697 4205.49C370.404 4205.69 370.258 4206.05 370.258 4206.56V4207.18H372.388V4208.67ZM381.366 4216.14C380.281 4216.14 379.3 4215.96 378.423 4215.58C377.546 4215.2 376.857 4214.67 376.356 4213.98C375.855 4213.29 375.604 4212.49 375.604 4211.58C375.604 4210.69 375.861 4209.89 376.377 4209.2C376.892 4208.51 377.594 4207.97 378.485 4207.6C379.377 4207.23 380.371 4207.04 381.471 4207.04C382.571 4207.04 383.565 4207.23 384.456 4207.6C385.348 4207.97 386.05 4208.51 386.565 4209.2C387.08 4209.89 387.337 4210.69 387.337 4211.58C387.337 4212.48 387.073 4213.27 386.544 4213.97C386.016 4214.66 385.291 4215.2 384.373 4215.58C383.469 4215.96 382.466 4216.14 381.366 4216.14ZM381.366 4214.56C381.978 4214.56 382.55 4214.45 383.078 4214.22C383.621 4214 384.06 4213.66 384.394 4213.22C384.728 4212.77 384.895 4212.22 384.895 4211.58C384.895 4210.94 384.734 4210.41 384.415 4209.97C384.095 4209.52 383.67 4209.18 383.141 4208.96C382.613 4208.74 382.041 4208.62 381.429 4208.62C380.817 4208.62 380.246 4208.74 379.717 4208.96C379.202 4209.18 378.792 4209.52 378.485 4209.97C378.179 4210.41 378.026 4210.94 378.026 4211.58C378.026 4212.53 378.339 4213.27 378.965 4213.79C379.606 4214.3 380.406 4214.56 381.366 4214.56ZM392.53 4216.11C392.098 4216.11 391.736 4216 391.444 4215.78C391.152 4215.55 391.005 4215.27 391.005 4214.94C391.005 4214.61 391.152 4214.34 391.444 4214.11C391.736 4213.89 392.098 4213.78 392.53 4213.78C392.947 4213.78 393.302 4213.89 393.594 4214.11C393.887 4214.34 394.033 4214.61 394.033 4214.94C394.033 4215.27 393.887 4215.55 393.594 4215.78C393.302 4216 392.947 4216.11 392.53 4216.11ZM399.695 4206.02C399.264 4206.02 398.901 4205.9 398.609 4205.68C398.317 4205.46 398.17 4205.18 398.17 4204.85C398.17 4204.52 398.317 4204.24 398.609 4204.02C398.901 4203.79 399.264 4203.68 399.695 4203.68C400.112 4203.68 400.467 4203.79 400.759 4204.02C401.052 4204.24 401.198 4204.52 401.198 4204.85C401.198 4205.18 401.052 4205.46 400.759 4205.68C400.467 4205.9 400.112 4206.02 399.695 4206.02ZM400.864 4207.18V4216H398.484V4207.18H400.864ZM411.672 4207.04C412.576 4207.04 413.384 4207.18 414.094 4207.47C414.818 4207.76 415.382 4208.19 415.785 4208.75C416.188 4209.32 416.39 4210 416.39 4210.8V4216H414.031V4211.07C414.031 4210.28 413.774 4209.68 413.259 4209.26C412.743 4208.84 412.041 4208.62 411.15 4208.62C410.259 4208.62 409.549 4208.84 409.02 4209.26C408.505 4209.68 408.248 4210.28 408.248 4211.07V4216H405.868V4207.18H408.248V4208.19C408.638 4207.83 409.131 4207.55 409.73 4207.34C410.342 4207.14 410.989 4207.04 411.672 4207.04ZM424.082 4208.67V4213.55C424.082 4213.88 424.179 4214.12 424.375 4214.27C424.583 4214.41 424.931 4214.48 425.419 4214.48H426.88V4216H425.001C423.928 4216 423.108 4215.81 422.537 4215.42C421.966 4215.04 421.681 4214.42 421.681 4213.55V4208.67H420.324V4207.18H421.681V4204.99H424.082V4207.18H426.88V4208.67H424.082ZM441.496 4211.38C441.496 4211.71 441.468 4212.01 441.412 4212.27H432.623C432.692 4212.98 433.034 4213.54 433.646 4213.97C434.258 4214.39 435.009 4214.61 435.9 4214.61C437.181 4214.61 438.086 4214.2 438.615 4213.38H441.183C440.834 4214.19 440.201 4214.85 439.283 4215.38C438.378 4215.89 437.251 4216.14 435.9 4216.14C434.8 4216.14 433.813 4215.96 432.936 4215.58C432.073 4215.2 431.391 4214.67 430.89 4213.98C430.403 4213.29 430.159 4212.49 430.159 4211.58C430.159 4210.68 430.395 4209.88 430.869 4209.2C431.356 4208.51 432.032 4207.97 432.894 4207.6C433.771 4207.23 434.773 4207.04 435.9 4207.04C436.986 4207.04 437.953 4207.22 438.802 4207.58C439.652 4207.95 440.312 4208.46 440.786 4209.12C441.26 4209.77 441.496 4210.52 441.496 4211.38ZM439.011 4210.8C438.997 4210.13 438.684 4209.59 438.072 4209.18C437.46 4208.78 436.7 4208.58 435.796 4208.58C434.975 4208.58 434.272 4208.78 433.687 4209.18C433.103 4209.58 432.754 4210.12 432.644 4210.8H439.011ZM448.097 4204.16V4216H445.717V4204.16H448.097ZM455.481 4204.16V4216H453.101V4204.16H455.481ZM461.695 4206.02C461.264 4206.02 460.902 4205.9 460.609 4205.68C460.317 4205.46 460.171 4205.18 460.171 4204.85C460.171 4204.52 460.317 4204.24 460.609 4204.02C460.902 4203.79 461.264 4203.68 461.695 4203.68C462.113 4203.68 462.467 4203.79 462.76 4204.02C463.052 4204.24 463.198 4204.52 463.198 4204.85C463.198 4205.18 463.052 4205.46 462.76 4205.68C462.467 4205.9 462.113 4206.02 461.695 4206.02ZM462.864 4207.18V4216H460.484V4207.18H462.864ZM478.412 4211.38C478.412 4211.71 478.384 4212.01 478.328 4212.27H469.539C469.608 4212.98 469.95 4213.54 470.562 4213.97C471.174 4214.39 471.925 4214.61 472.816 4214.61C474.096 4214.61 475.002 4214.2 475.53 4213.38H478.098C477.75 4214.19 477.117 4214.85 476.199 4215.38C475.294 4215.89 474.167 4216.14 472.816 4216.14C471.716 4216.14 470.729 4215.96 469.852 4215.58C468.989 4215.2 468.307 4214.67 467.806 4213.98C467.319 4213.29 467.075 4212.49 467.075 4211.58C467.075 4210.68 467.311 4209.88 467.785 4209.2C468.271 4208.51 468.947 4207.97 469.81 4207.6C470.687 4207.23 471.689 4207.04 472.816 4207.04C473.902 4207.04 474.869 4207.22 475.718 4207.58C476.568 4207.95 477.228 4208.46 477.702 4209.12C478.175 4209.77 478.412 4210.52 478.412 4211.38ZM475.927 4210.8C475.913 4210.13 475.6 4209.59 474.988 4209.18C474.376 4208.78 473.616 4208.58 472.712 4208.58C471.891 4208.58 471.188 4208.78 470.603 4209.18C470.019 4209.58 469.67 4210.12 469.559 4210.8H475.927ZM481.839 4211.55C481.839 4210.67 482.076 4209.88 482.549 4209.2C483.036 4208.52 483.691 4207.99 484.512 4207.62C485.347 4207.23 486.272 4207.04 487.289 4207.04C488.04 4207.04 488.777 4207.17 489.502 4207.42C490.239 4207.67 490.823 4208 491.255 4208.42V4204.16H493.656V4216H491.255V4214.67C490.865 4215.1 490.322 4215.45 489.627 4215.73C488.944 4216.01 488.159 4216.14 487.268 4216.14C486.266 4216.14 485.347 4215.95 484.512 4215.57C483.691 4215.17 483.036 4214.63 482.549 4213.94C482.076 4213.23 481.839 4212.44 481.839 4211.55ZM491.255 4211.58C491.255 4210.98 491.088 4210.45 490.754 4210C490.435 4209.55 490.009 4209.21 489.481 4208.98C488.952 4208.74 488.381 4208.62 487.769 4208.62C487.157 4208.62 486.585 4208.74 486.057 4208.98C485.528 4209.2 485.096 4209.54 484.762 4209.98C484.443 4210.42 484.282 4210.94 484.282 4211.55C484.282 4212.16 484.443 4212.69 484.762 4213.15C485.096 4213.61 485.528 4213.96 486.057 4214.21C486.6 4214.44 487.17 4214.56 487.769 4214.56C488.381 4214.56 488.952 4214.44 489.481 4214.21C490.009 4213.97 490.435 4213.63 490.754 4213.18C491.088 4212.73 491.255 4212.19 491.255 4211.58ZM509.372 4205.66C510.959 4205.66 512.33 4205.89 513.485 4206.34C514.64 4206.78 515.517 4207.41 516.116 4208.22C516.727 4209.02 517.034 4209.96 517.034 4211.02C517.034 4211.88 516.84 4212.69 516.45 4213.47C516.074 4214.25 515.524 4214.89 514.8 4215.38C514.09 4215.87 513.249 4216.11 512.274 4216.11C511.564 4216.11 511.007 4215.99 510.604 4215.76C510.201 4215.51 509.95 4215.17 509.852 4214.74C509.42 4215.16 508.877 4215.5 508.224 4215.74C507.57 4215.99 506.888 4216.11 506.178 4216.11C505.106 4216.11 504.263 4215.87 503.651 4215.38C503.053 4214.87 502.754 4214.2 502.754 4213.34C502.754 4212.53 502.969 4211.78 503.401 4211.07C503.846 4210.37 504.466 4209.81 505.259 4209.39C506.052 4208.97 506.944 4208.75 507.931 4208.75C509.142 4208.75 509.992 4209.07 510.479 4209.7L510.666 4208.9H512.733L511.689 4213.47C511.648 4213.7 511.627 4213.89 511.627 4214.06C511.627 4214.34 511.696 4214.55 511.836 4214.69C511.988 4214.83 512.253 4214.9 512.629 4214.9C513.157 4214.9 513.61 4214.7 513.986 4214.3C514.362 4213.9 514.64 4213.4 514.821 4212.82C515.016 4212.23 515.113 4211.66 515.113 4211.1C515.113 4209.75 514.598 4208.71 513.568 4208C512.539 4207.29 511.042 4206.93 509.08 4206.93C507.437 4206.93 505.962 4207.23 504.654 4207.82C503.359 4208.42 502.343 4209.24 501.605 4210.29C500.868 4211.33 500.499 4212.5 500.499 4213.78C500.499 4215.14 501.027 4216.18 502.086 4216.9C503.144 4217.61 504.654 4217.97 506.616 4217.97C507.938 4217.97 509.094 4217.78 510.082 4217.41L510.395 4218.62C509.128 4219.04 507.708 4219.25 506.136 4219.25C504.618 4219.25 503.29 4219.03 502.148 4218.59C501.007 4218.15 500.123 4217.53 499.497 4216.72C498.87 4215.92 498.557 4214.99 498.557 4213.92C498.557 4212.39 499.017 4211 499.935 4209.74C500.868 4208.49 502.155 4207.49 503.798 4206.77C505.44 4206.03 507.299 4205.66 509.372 4205.66ZM506.908 4214.7C507.493 4214.7 508.021 4214.58 508.495 4214.32C508.982 4214.05 509.365 4213.71 509.643 4213.28C509.921 4212.84 510.061 4212.38 510.061 4211.89C510.061 4211.38 509.873 4210.96 509.497 4210.64C509.136 4210.31 508.62 4210.14 507.952 4210.14C507.353 4210.14 506.825 4210.29 506.366 4210.58C505.921 4210.85 505.572 4211.22 505.322 4211.66C505.086 4212.11 504.967 4212.58 504.967 4213.07C504.967 4213.57 505.127 4213.97 505.447 4214.27C505.767 4214.56 506.255 4214.7 506.908 4214.7ZM526.583 4207.04C527.474 4207.04 528.26 4207.18 528.942 4207.46C529.638 4207.72 530.181 4208.06 530.571 4208.46V4207.18H532.972V4216.14C532.972 4216.95 532.749 4217.67 532.304 4218.3C531.859 4218.94 531.211 4219.45 530.362 4219.81C529.527 4220.17 528.525 4220.35 527.356 4220.35C525.796 4220.35 524.502 4220.07 523.472 4219.5C522.443 4218.95 521.858 4218.19 521.719 4217.23H524.078C524.259 4217.69 524.642 4218.06 525.226 4218.34C525.825 4218.62 526.535 4218.77 527.356 4218.77C528.316 4218.77 529.088 4218.54 529.673 4218.1C530.272 4217.65 530.571 4217 530.571 4216.14V4214.67C530.168 4215.09 529.617 4215.44 528.921 4215.73C528.239 4216.01 527.46 4216.14 526.583 4216.14C525.581 4216.14 524.662 4215.95 523.827 4215.57C523.006 4215.17 522.351 4214.63 521.865 4213.94C521.391 4213.23 521.155 4212.44 521.155 4211.55C521.155 4210.67 521.391 4209.88 521.865 4209.2C522.351 4208.52 523.006 4207.99 523.827 4207.62C524.662 4207.23 525.581 4207.04 526.583 4207.04ZM530.571 4211.58C530.571 4210.98 530.404 4210.45 530.07 4210C529.75 4209.55 529.325 4209.21 528.796 4208.98C528.268 4208.74 527.696 4208.62 527.084 4208.62C526.472 4208.62 525.901 4208.74 525.372 4208.98C524.844 4209.2 524.412 4209.54 524.078 4209.98C523.758 4210.42 523.598 4210.94 523.598 4211.55C523.598 4212.16 523.758 4212.69 524.078 4213.15C524.412 4213.61 524.844 4213.96 525.372 4214.21C525.915 4214.44 526.485 4214.56 527.084 4214.56C527.696 4214.56 528.268 4214.44 528.796 4214.21C529.325 4213.97 529.75 4213.63 530.07 4213.18C530.404 4212.73 530.571 4212.19 530.571 4211.58ZM551.903 4207.04C552.807 4207.04 553.615 4207.18 554.324 4207.47C555.049 4207.76 555.612 4208.19 556.016 4208.75C556.433 4209.32 556.642 4210 556.642 4210.8V4216H554.283V4211.07C554.283 4210.28 554.026 4209.68 553.51 4209.26C552.995 4208.84 552.293 4208.62 551.402 4208.62C550.51 4208.62 549.801 4208.84 549.272 4209.26C548.757 4209.68 548.5 4210.28 548.5 4211.07V4216H546.14V4211.07C546.14 4210.28 545.883 4209.68 545.368 4209.26C544.852 4208.84 544.15 4208.62 543.259 4208.62C542.368 4208.62 541.658 4208.84 541.13 4209.26C540.614 4209.68 540.357 4210.28 540.357 4211.07V4216H537.977V4207.18H540.357V4208.19C540.747 4207.83 541.241 4207.55 541.84 4207.34C542.439 4207.14 543.078 4207.04 543.76 4207.04C544.679 4207.04 545.5 4207.19 546.224 4207.49C546.948 4207.79 547.504 4208.22 547.894 4208.78C548.243 4208.25 548.785 4207.83 549.523 4207.52C550.26 4207.2 551.053 4207.04 551.903 4207.04ZM560.756 4211.55C560.756 4210.67 560.992 4209.88 561.466 4209.2C561.953 4208.52 562.608 4207.99 563.428 4207.62C564.264 4207.23 565.182 4207.04 566.184 4207.04C567.089 4207.04 567.875 4207.18 568.544 4207.46C569.226 4207.72 569.769 4208.06 570.172 4208.46V4207.18H572.573V4216H570.172V4214.69C569.769 4215.1 569.218 4215.45 568.523 4215.73C567.827 4216.01 567.034 4216.14 566.143 4216.14C565.155 4216.14 564.249 4215.95 563.428 4215.57C562.608 4215.17 561.953 4214.63 561.466 4213.94C560.992 4213.23 560.756 4212.44 560.756 4211.55ZM570.172 4211.58C570.172 4210.98 570.005 4210.45 569.671 4210C569.351 4209.55 568.926 4209.21 568.397 4208.98C567.869 4208.74 567.297 4208.62 566.685 4208.62C566.073 4208.62 565.502 4208.74 564.973 4208.98C564.445 4209.2 564.013 4209.54 563.679 4209.98C563.359 4210.42 563.199 4210.94 563.199 4211.55C563.199 4212.16 563.359 4212.69 563.679 4213.15C564.013 4213.61 564.445 4213.96 564.973 4214.21C565.516 4214.44 566.086 4214.56 566.685 4214.56C567.297 4214.56 567.869 4214.44 568.397 4214.21C568.926 4213.97 569.351 4213.63 569.671 4213.18C570.005 4212.73 570.172 4212.19 570.172 4211.58ZM578.789 4206.02C578.357 4206.02 577.996 4205.9 577.704 4205.68C577.411 4205.46 577.265 4205.18 577.265 4204.85C577.265 4204.52 577.411 4204.24 577.704 4204.02C577.996 4203.79 578.357 4203.68 578.789 4203.68C579.207 4203.68 579.562 4203.79 579.854 4204.02C580.146 4204.24 580.293 4204.52 580.293 4204.85C580.293 4205.18 580.146 4205.46 579.854 4205.68C579.562 4205.9 579.207 4206.02 578.789 4206.02ZM579.958 4207.18V4216H577.578V4207.18H579.958ZM587.341 4204.16V4216H584.961V4204.16H587.341ZM593.306 4216.11C592.874 4216.11 592.513 4216 592.22 4215.78C591.928 4215.55 591.782 4215.27 591.782 4214.94C591.782 4214.61 591.928 4214.34 592.22 4214.11C592.513 4213.89 592.874 4213.78 593.306 4213.78C593.723 4213.78 594.078 4213.89 594.371 4214.11C594.663 4214.34 594.809 4214.61 594.809 4214.94C594.809 4215.27 594.663 4215.55 594.371 4215.78C594.078 4216 593.723 4216.11 593.306 4216.11ZM598.468 4211.58C598.468 4210.68 598.704 4209.88 599.178 4209.2C599.664 4208.51 600.333 4207.97 601.182 4207.6C602.03 4207.23 603.005 4207.04 604.105 4207.04C605.496 4207.04 606.644 4207.3 607.55 4207.81C608.468 4208.31 609.087 4209.03 609.408 4209.97H606.84C606.631 4209.53 606.297 4209.19 605.838 4208.94C605.378 4208.7 604.8 4208.58 604.105 4208.58C603.13 4208.58 602.351 4208.84 601.767 4209.38C601.195 4209.9 600.911 4210.63 600.911 4211.58C600.911 4212.53 601.195 4213.27 601.767 4213.81C602.351 4214.34 603.13 4214.61 604.105 4214.61C605.483 4214.61 606.394 4214.14 606.84 4213.22H609.408C609.074 4214.11 608.447 4214.83 607.529 4215.36C606.61 4215.88 605.469 4216.14 604.105 4216.14C603.005 4216.14 602.03 4215.96 601.182 4215.58C600.333 4215.2 599.664 4214.67 599.178 4213.98C598.704 4213.29 598.468 4212.49 598.468 4211.58ZM618.648 4216.14C617.562 4216.14 616.581 4215.96 615.704 4215.58C614.827 4215.2 614.138 4214.67 613.637 4213.98C613.136 4213.29 612.885 4212.49 612.885 4211.58C612.885 4210.69 613.144 4209.89 613.658 4209.2C614.173 4208.51 614.877 4207.97 615.766 4207.6C616.658 4207.23 617.653 4207.04 618.752 4207.04C619.852 4207.04 620.848 4207.23 621.737 4207.6C622.629 4207.97 623.332 4208.51 623.846 4209.2C624.362 4209.89 624.619 4210.69 624.619 4211.58C624.619 4212.48 624.355 4213.27 623.825 4213.97C623.297 4214.66 622.573 4215.2 621.654 4215.58C620.75 4215.96 619.748 4216.14 618.648 4216.14ZM618.648 4214.56C619.261 4214.56 619.831 4214.45 620.36 4214.22C620.902 4214 621.341 4213.66 621.675 4213.22C622.009 4212.77 622.176 4212.22 622.176 4211.58C622.176 4210.94 622.017 4210.41 621.696 4209.97C621.376 4209.52 620.952 4209.18 620.422 4208.96C619.894 4208.74 619.323 4208.62 618.71 4208.62C618.098 4208.62 617.528 4208.74 616.998 4208.96C616.484 4209.18 616.073 4209.52 615.766 4209.97C615.461 4210.41 615.307 4210.94 615.307 4211.58C615.307 4212.53 615.62 4213.27 616.247 4213.79C616.887 4214.3 617.687 4214.56 618.648 4214.56ZM642.776 4207.04C643.681 4207.04 644.488 4207.18 645.198 4207.47C645.922 4207.76 646.486 4208.19 646.889 4208.75C647.306 4209.32 647.515 4210 647.515 4210.8V4216H645.156V4211.07C645.156 4210.28 644.899 4209.68 644.383 4209.26C643.869 4208.84 643.166 4208.62 642.275 4208.62C641.385 4208.62 640.675 4208.84 640.145 4209.26C639.631 4209.68 639.373 4210.28 639.373 4211.07V4216H637.014V4211.07C637.014 4210.28 636.756 4209.68 636.241 4209.26C635.727 4208.84 635.024 4208.62 634.132 4208.62C633.242 4208.62 632.533 4208.84 632.003 4209.26C631.489 4209.68 631.23 4210.28 631.23 4211.07V4216H628.85V4207.18H631.23V4208.19C631.621 4207.83 632.115 4207.55 632.713 4207.34C633.312 4207.14 633.952 4207.04 634.633 4207.04C635.552 4207.04 636.374 4207.19 637.097 4207.49C637.821 4207.79 638.378 4208.22 638.767 4208.78C639.116 4208.25 639.658 4207.83 640.396 4207.52C641.134 4207.2 641.928 4207.04 642.776 4207.04Z" fill="white"/>
<path d="M355.956 4298.99H351.738V4302.3H349.525V4298.99H345.308V4297.46H349.525V4294.14H351.738V4297.46H355.956V4298.99ZM364.179 4300.83C364.319 4301.37 364.617 4301.77 365.077 4302.05C365.536 4302.33 366.156 4302.46 366.935 4302.46C367.923 4302.46 368.647 4302.17 369.106 4301.57C369.565 4300.97 369.795 4299.95 369.795 4298.51C369.461 4298.87 368.987 4299.16 368.375 4299.36C367.776 4299.55 367.123 4299.65 366.413 4299.65C365.509 4299.65 364.686 4299.51 363.949 4299.23C363.212 4298.94 362.627 4298.52 362.196 4297.97C361.778 4297.4 361.569 4296.72 361.569 4295.92C361.569 4294.75 362.014 4293.81 362.905 4293.12C363.81 4292.42 365.049 4292.06 366.622 4292.06C368.515 4292.06 369.858 4292.55 370.651 4293.52C371.459 4294.48 371.862 4295.96 371.862 4297.95C371.862 4299.33 371.709 4300.45 371.403 4301.33C371.11 4302.2 370.595 4302.86 369.858 4303.31C369.12 4303.76 368.097 4303.98 366.789 4303.98C365.3 4303.98 364.152 4303.69 363.344 4303.09C362.536 4302.49 362.085 4301.74 361.987 4300.83H364.179ZM366.83 4298.11C367.665 4298.11 368.319 4297.91 368.793 4297.52C369.28 4297.11 369.524 4296.58 369.524 4295.92C369.524 4295.18 369.267 4294.61 368.751 4294.21C368.25 4293.79 367.561 4293.58 366.684 4293.58C365.807 4293.58 365.112 4293.8 364.596 4294.22C364.095 4294.64 363.845 4295.19 363.845 4295.87C363.845 4296.52 364.089 4297.06 364.576 4297.49C365.077 4297.9 365.828 4298.11 366.83 4298.11ZM376.032 4294V4292.34H380.375V4304H377.974V4294H376.032ZM385.211 4294V4292.34H389.553V4304H387.152V4294H385.211ZM396.017 4301.52C397.354 4300.63 398.404 4299.91 399.17 4299.34C399.949 4298.77 400.596 4298.17 401.112 4297.55C401.626 4296.93 401.884 4296.31 401.884 4295.7C401.884 4295.06 401.682 4294.55 401.279 4294.19C400.889 4293.83 400.269 4293.65 399.421 4293.65C398.599 4293.65 397.959 4293.85 397.5 4294.26C397.054 4294.65 396.817 4295.18 396.79 4295.86H394.493C394.535 4294.64 395.008 4293.71 395.913 4293.07C396.832 4292.42 397.993 4292.1 399.4 4292.1C400.916 4292.1 402.099 4292.42 402.949 4293.06C403.811 4293.7 404.243 4294.55 404.243 4295.62C404.243 4296.38 403.985 4297.13 403.471 4297.84C402.97 4298.54 402.364 4299.18 401.654 4299.74C400.958 4300.3 400.068 4300.94 398.982 4301.68L398.043 4302.32H404.661V4303.84H394.514V4302.51L396.017 4301.52ZM408.589 4295.22C408.672 4294.22 409.167 4293.45 410.071 4292.9C410.989 4292.34 412.159 4292.06 413.578 4292.06C414.553 4292.06 415.395 4292.2 416.105 4292.46C416.814 4292.73 417.351 4293.09 417.712 4293.55C418.074 4294.01 418.255 4294.53 418.255 4295.1C418.255 4295.77 418.025 4296.33 417.566 4296.8C417.107 4297.27 416.557 4297.58 415.917 4297.74V4297.81C416.737 4298 417.378 4298.35 417.837 4298.86C418.297 4299.37 418.526 4300.01 418.526 4300.8C418.526 4301.43 418.338 4301.99 417.963 4302.48C417.587 4302.97 417.03 4303.36 416.292 4303.65C415.555 4303.93 414.67 4304.06 413.641 4304.06C412.138 4304.06 410.899 4303.77 409.925 4303.18C408.964 4302.59 408.449 4301.73 408.38 4300.62H410.676C410.732 4301.19 411.017 4301.65 411.532 4302.02C412.048 4302.37 412.743 4302.54 413.62 4302.54C414.47 4302.54 415.123 4302.37 415.583 4302.02C416.042 4301.65 416.272 4301.19 416.272 4300.62C416.272 4299.88 415.958 4299.35 415.332 4299.04C414.72 4298.72 413.773 4298.56 412.493 4298.56H411.95V4297.06H412.514C413.641 4297.05 414.497 4296.9 415.082 4296.62C415.68 4296.35 415.979 4295.91 415.979 4295.31C415.979 4294.8 415.764 4294.39 415.332 4294.1C414.9 4293.79 414.288 4293.63 413.495 4293.63C412.716 4293.63 412.11 4293.79 411.678 4294.1C411.247 4294.39 410.989 4294.77 410.906 4295.22H408.589ZM422.613 4301.57V4300.19L429.628 4292.48H432.509V4299.98H434.451V4301.57H432.509V4304H430.171V4301.57H422.613ZM430.275 4294.34L425.348 4299.98H430.275V4294.34ZM448.114 4293.9H441.12V4297.09C441.412 4296.79 441.844 4296.54 442.414 4296.34C442.999 4296.13 443.619 4296.03 444.273 4296.03C445.442 4296.03 446.389 4296.22 447.112 4296.61C447.85 4296.99 448.372 4297.48 448.678 4298.06C448.999 4298.65 449.158 4299.27 449.158 4299.92C449.158 4300.71 448.957 4301.41 448.553 4302.03C448.164 4302.64 447.571 4303.12 446.778 4303.47C445.999 4303.82 445.039 4304 443.897 4304C442.381 4304 441.162 4303.71 440.243 4303.14C439.325 4302.56 438.775 4301.8 438.594 4300.85H440.911C441.065 4301.35 441.406 4301.75 441.934 4302.05C442.464 4302.34 443.124 4302.48 443.918 4302.48C444.907 4302.48 445.644 4302.25 446.131 4301.79C446.632 4301.33 446.882 4300.73 446.882 4299.97C446.882 4299.2 446.632 4298.61 446.131 4298.21C445.63 4297.79 444.892 4297.58 443.918 4297.58C443.237 4297.58 442.658 4297.72 442.185 4297.98C441.725 4298.24 441.391 4298.59 441.183 4299.04H438.928V4292.3H448.114V4293.9ZM461.699 4295.04C461.546 4294.55 461.267 4294.18 460.864 4293.94C460.461 4293.69 459.897 4293.57 459.173 4293.57C458.073 4293.57 457.252 4293.89 456.709 4294.54C456.166 4295.18 455.881 4296.25 455.853 4297.74C456.215 4297.27 456.744 4296.91 457.44 4296.66C458.135 4296.4 458.887 4296.27 459.695 4296.27C460.613 4296.27 461.421 4296.43 462.117 4296.74C462.826 4297.03 463.376 4297.47 463.766 4298.05C464.169 4298.62 464.371 4299.31 464.371 4300.11C464.371 4300.86 464.177 4301.53 463.787 4302.11C463.411 4302.7 462.847 4303.16 462.096 4303.5C461.344 4303.83 460.44 4304 459.382 4304C457.947 4304 456.82 4303.76 455.999 4303.28C455.192 4302.79 454.621 4302.1 454.287 4301.22C453.968 4300.33 453.807 4299.23 453.807 4297.9C453.807 4294 455.603 4292.05 459.194 4292.05C460.586 4292.05 461.678 4292.34 462.471 4292.91C463.279 4293.49 463.752 4294.2 463.891 4295.04H461.699ZM459.173 4297.81C458.323 4297.81 457.6 4298.01 457.001 4298.4C456.417 4298.78 456.125 4299.34 456.125 4300.08C456.125 4300.82 456.396 4301.4 456.939 4301.84C457.496 4302.27 458.269 4302.48 459.256 4302.48C460.133 4302.48 460.822 4302.27 461.323 4301.86C461.839 4301.44 462.096 4300.89 462.096 4300.19C462.096 4299.47 461.845 4298.89 461.344 4298.46C460.857 4298.03 460.133 4297.81 459.173 4297.81ZM478.435 4293.74L472.631 4304H470.23L476.097 4293.94H468.372V4292.38H478.435V4293.74ZM484.919 4297.9C483.472 4297.35 482.748 4296.47 482.748 4295.28C482.748 4294.7 482.936 4294.18 483.311 4293.7C483.687 4293.22 484.251 4292.84 485.002 4292.56C485.754 4292.27 486.673 4292.13 487.758 4292.13C488.83 4292.13 489.742 4292.27 490.493 4292.56C491.259 4292.84 491.83 4293.22 492.205 4293.7C492.581 4294.18 492.769 4294.7 492.769 4295.28C492.769 4295.88 492.567 4296.41 492.164 4296.86C491.773 4297.31 491.251 4297.66 490.598 4297.9C491.391 4298.13 492.017 4298.5 492.477 4299.01C492.936 4299.51 493.166 4300.1 493.166 4300.78C493.166 4301.48 492.936 4302.09 492.477 4302.62C492.017 4303.16 491.377 4303.57 490.556 4303.86C489.735 4304.14 488.802 4304.29 487.758 4304.29C486.714 4304.29 485.782 4304.14 484.961 4303.86C484.153 4303.57 483.52 4303.16 483.061 4302.62C482.602 4302.09 482.372 4301.48 482.372 4300.78C482.372 4300.09 482.602 4299.49 483.061 4298.99C483.52 4298.49 484.14 4298.13 484.919 4297.9ZM490.493 4295.5C490.493 4294.91 490.249 4294.45 489.763 4294.13C489.276 4293.81 488.608 4293.65 487.758 4293.65C486.923 4293.65 486.262 4293.81 485.775 4294.13C485.288 4294.45 485.044 4294.91 485.044 4295.52C485.044 4296.05 485.295 4296.49 485.796 4296.83C486.311 4297.16 486.965 4297.33 487.758 4297.33C488.552 4297.33 489.205 4297.16 489.721 4296.82C490.236 4296.47 490.493 4296.04 490.493 4295.5ZM487.758 4298.7C486.84 4298.7 486.088 4298.88 485.504 4299.23C484.933 4299.57 484.648 4300.07 484.648 4300.72C484.648 4301.33 484.926 4301.82 485.483 4302.21C486.04 4302.58 486.798 4302.77 487.758 4302.77C488.704 4302.77 489.449 4302.58 489.992 4302.19C490.549 4301.81 490.827 4301.32 490.827 4300.72C490.827 4300.08 490.542 4299.58 489.971 4299.23C489.414 4298.88 488.677 4298.7 487.758 4298.7ZM500.508 4300.83C500.648 4301.37 500.947 4301.77 501.406 4302.05C501.865 4302.33 502.485 4302.46 503.264 4302.46C504.252 4302.46 504.976 4302.17 505.435 4301.57C505.895 4300.97 506.124 4299.95 506.124 4298.51C505.79 4298.87 505.317 4299.16 504.705 4299.36C504.106 4299.55 503.452 4299.65 502.742 4299.65C501.838 4299.65 501.016 4299.51 500.278 4299.23C499.541 4298.94 498.957 4298.52 498.525 4297.97C498.107 4297.4 497.898 4296.72 497.898 4295.92C497.898 4294.75 498.343 4293.81 499.235 4293.12C500.139 4292.42 501.378 4292.06 502.951 4292.06C504.844 4292.06 506.187 4292.55 506.98 4293.52C507.788 4294.48 508.191 4295.96 508.191 4297.95C508.191 4299.33 508.038 4300.45 507.732 4301.33C507.44 4302.2 506.924 4302.86 506.187 4303.31C505.45 4303.76 504.427 4303.98 503.118 4303.98C501.629 4303.98 500.481 4303.69 499.673 4303.09C498.865 4302.49 498.414 4301.74 498.316 4300.83H500.508ZM503.16 4298.11C503.995 4298.11 504.648 4297.91 505.122 4297.52C505.609 4297.11 505.853 4296.58 505.853 4295.92C505.853 4295.18 505.596 4294.61 505.08 4294.21C504.579 4293.79 503.89 4293.58 503.013 4293.58C502.137 4293.58 501.441 4293.8 500.926 4294.22C500.425 4294.64 500.174 4295.19 500.174 4295.87C500.174 4296.52 500.418 4297.06 500.905 4297.49C501.406 4297.9 502.158 4298.11 503.16 4298.11Z" fill="white"/>
<path d="M811.008 4861.25C806.378 4861.29 802.672 4864.2 802.73 4867.75C802.788 4871.3 806.588 4874.14 811.218 4874.09C815.847 4874.05 819.553 4871.14 819.496 4867.59C819.437 4864.04 815.637 4861.2 811.008 4861.25ZM811.266 4870.85C809.207 4870.87 808.004 4869.83 807.975 4868.09L807.963 4867.34C807.935 4865.58 809.104 4864.5 811.16 4864.48C812.925 4864.47 814.219 4865.33 814.239 4866.57C814.24 4866.61 814.201 4866.64 814.152 4866.64L813.092 4866.65C813.012 4866.65 812.948 4866.6 812.939 4866.54C812.853 4865.83 812.172 4865.35 811.18 4865.36C809.957 4865.38 809.28 4866.08 809.301 4867.33L809.314 4868.08C809.334 4869.31 810.036 4869.99 811.256 4869.98C812.243 4869.97 812.908 4869.51 812.977 4868.84C812.983 4868.79 813.047 4868.74 813.125 4868.74L814.188 4868.73C814.237 4868.73 814.276 4868.76 814.278 4868.79C814.296 4869.98 813.025 4870.83 811.266 4870.85Z" fill="white"/>
</g>
<defs>
<filter id="filter0_f_0_3" x="-585.091" y="100.051" width="1857.88" height="1532.17" filterUnits="userSpaceOnUse" color-interpolation-filters="sRGB">
<feFlood flood-opacity="0" result="BackgroundImageFix"/>
<feBlend mode="normal" in="SourceGraphic" in2="BackgroundImageFix" result="shape"/>
<feGaussianBlur stdDeviation="106" result="effect1_foregroundBlur_0_3"/>
</filter>
<filter id="filter1_f_0_3" x="398.269" y="66.144" width="1215.58" height="1207.68" filterUnits="userSpaceOnUse" color-interpolation-filters="sRGB">
<feFlood flood-opacity="0" result="BackgroundImageFix"/>
<feBlend mode="normal" in="SourceGraphic" in2="BackgroundImageFix" result="shape"/>
<feGaussianBlur stdDeviation="106" result="effect1_foregroundBlur_0_3"/>
</filter>
<filter id="filter2_f_0_3" x="798.464" y="-89.8857" width="1708.6" height="1390.58" filterUnits="userSpaceOnUse" color-interpolation-filters="sRGB">
<feFlood flood-opacity="0" result="BackgroundImageFix"/>
<feBlend mode="normal" in="SourceGraphic" in2="BackgroundImageFix" result="shape"/>
<feGaussianBlur stdDeviation="106" result="effect1_foregroundBlur_0_3"/>
</filter>
<filter id="filter3_f_0_3" x="799.877" y="87.2988" width="1676.39" height="1350.25" filterUnits="userSpaceOnUse" color-interpolation-filters="sRGB">
<feFlood flood-opacity="0" result="BackgroundImageFix"/>
<feBlend mode="normal" in="SourceGraphic" in2="BackgroundImageFix" result="shape"/>
<feGaussianBlur stdDeviation="106" result="effect1_foregroundBlur_0_3"/>
</filter>
<filter id="filter4_f_0_3" x="695.847" y="-476.308" width="1642.53" height="1333.7" filterUnits="userSpaceOnUse" color-interpolation-filters="sRGB">
<feFlood flood-opacity="0" result="BackgroundImageFix"/>
<feBlend mode="normal" in="SourceGraphic" in2="BackgroundImageFix" result="shape"/>
<feGaussianBlur stdDeviation="106" result="effect1_foregroundBlur_0_3"/>
</filter>
<filter id="filter5_f_0_3" x="-97.1292" y="-689.717" width="1701.36" height="1387.54" filterUnits="userSpaceOnUse" color-interpolation-filters="sRGB">
<feFlood flood-opacity="0" result="BackgroundImageFix"/>
<feBlend mode="normal" in="SourceGraphic" in2="BackgroundImageFix" result="shape"/>
<feGaussianBlur stdDeviation="106" result="effect1_foregroundBlur_0_3"/>
</filter>
<filter id="filter6_f_0_3" x="1364.03" y="2458.41" width="849.422" height="767.378" filterUnits="userSpaceOnUse" color-interpolation-filters="sRGB">
<feFlood flood-opacity="0" result="BackgroundImageFix"/>
<feBlend mode="normal" in="SourceGraphic" in2="BackgroundImageFix" result="shape"/>
<feGaussianBlur stdDeviation="106" result="effect1_foregroundBlur_0_3"/>
</filter>
<filter id="filter7_f_0_3" x="-692.847" y="2083.27" width="1410.82" height="1072" filterUnits="userSpaceOnUse" color-interpolation-filters="sRGB">
<feFlood flood-opacity="0" result="BackgroundImageFix"/>
<feBlend mode="normal" in="SourceGraphic" in2="BackgroundImageFix" result="shape"/>
<feGaussianBlur stdDeviation="116" result="effect1_foregroundBlur_0_3"/>
</filter>
<filter id="filter8_f_0_3" x="1194.18" y="1317.7" width="1057.23" height="905.569" filterUnits="userSpaceOnUse" color-interpolation-filters="sRGB">
<feFlood flood-opacity="0" result="BackgroundImageFix"/>
<feBlend mode="normal" in="SourceGraphic" in2="BackgroundImageFix" result="shape"/>
<feGaussianBlur stdDeviation="106" result="effect1_foregroundBlur_0_3"/>
</filter>
<radialGradient id="paint0_radial_0_3" cx="0" cy="0" r="1" gradientUnits="userSpaceOnUse" gradientTransform="translate(640.711 123.979) rotate(128.956) scale(744.668 1342.36)">
<stop stop-color="white" stop-opacity="0.7"/>
<stop offset="1" stop-color="white" stop-opacity="0.1"/>
</radialGradient>
<radialGradient id="paint1_radial_0_3" cx="0" cy="0" r="1" gradientUnits="userSpaceOnUse" gradientTransform="translate(590.099 112.868) rotate(128.956) scale(744.668 1342.36)">
<stop stop-color="white" stop-opacity="0.7"/>
<stop offset="1" stop-color="white" stop-opacity="0.1"/>
</radialGradient>
<linearGradient id="paint2_linear_0_3" x1="2274.14" y1="161.903" x2="2350.11" y2="1249.34" gradientUnits="userSpaceOnUse">
<stop offset="0.617708" stop-color="#E756DB"/>
<stop offset="1" stop-color="#8DF1FF"/>
</linearGradient>
<linearGradient id="paint3_linear_0_3" x1="2223.53" y1="150.794" x2="2299.5" y2="1238.23" gradientUnits="userSpaceOnUse">
<stop offset="0.617708" stop-color="#E756DB"/>
<stop offset="1" stop-color="#8DF1FF"/>
</linearGradient>
<radialGradient id="paint4_radial_0_3" cx="0" cy="0" r="1" gradientUnits="userSpaceOnUse" gradientTransform="translate(1135.72 558.258) rotate(-50.1074) scale(747.631 1337.04)">
<stop offset="0.9999" stop-color="#8DF1FF"/>
<stop offset="1" stop-color="#8242A6"/>
</radialGradient>
<radialGradient id="paint5_radial_0_3" cx="0" cy="0" r="1" gradientUnits="userSpaceOnUse" gradientTransform="translate(1177.52 573.622) rotate(-50.1074) scale(747.631 1337.04)">
<stop offset="0.9999" stop-color="#8DF1FF"/>
<stop offset="1" stop-color="#8242A6"/>
</radialGradient>
<radialGradient id="paint6_radial_0_3" cx="0" cy="0" r="1" gradientUnits="userSpaceOnUse" gradientTransform="translate(469.473 798.338) rotate(-21.5845) scale(849.436 1176.79)">
<stop stop-color="white" stop-opacity="0.7"/>
<stop offset="1" stop-color="white" stop-opacity="0.1"/>
</radialGradient>
<radialGradient id="paint7_radial_0_3" cx="0" cy="0" r="1" gradientUnits="userSpaceOnUse" gradientTransform="translate(505.448 827.796) rotate(-21.5845) scale(849.436 1176.79)">
<stop stop-color="white" stop-opacity="0.7"/>
<stop offset="1" stop-color="white" stop-opacity="0.1"/>
</radialGradient>
<linearGradient id="paint8_linear_0_3" x1="-21.6349" y1="665.529" x2="138.238" y2="1025.86" gradientUnits="userSpaceOnUse">
<stop stop-color="#8DF1FF"/>
<stop offset="1" stop-color="#282361"/>
</linearGradient>
<linearGradient id="paint9_linear_0_3" x1="1100.75" y1="1057.88" x2="987.946" y2="271.108" gradientUnits="userSpaceOnUse">
<stop stop-color="#231F60"/>
<stop offset="1" stop-color="#251F61"/>
</linearGradient>
<linearGradient id="paint10_linear_0_3" x1="1141.27" y1="270.676" x2="1930.42" y2="1149.98" gradientUnits="userSpaceOnUse">
<stop stop-color="#B8B5FF"/>
<stop offset="1" stop-color="#2DDDBD"/>
</linearGradient>
<linearGradient id="paint11_linear_0_3" x1="2398.33" y1="480.999" x2="2262.93" y2="1099.76" gradientUnits="userSpaceOnUse">
<stop stop-color="#86E4F6" stop-opacity="0"/>
<stop offset="1" stop-color="#8C4FB0" stop-opacity="0.51"/>
</linearGradient>
<linearGradient id="paint12_linear_0_3" x1="1122.7" y1="411.64" x2="1167.13" y2="918.053" gradientUnits="userSpaceOnUse">
<stop stop-color="#25205F"/>
<stop offset="1" stop-color="#7CCCE3"/>
</linearGradient>
<linearGradient id="paint13_linear_0_3" x1="1572" y1="-988.928" x2="1836.09" y2="411.746" gradientUnits="userSpaceOnUse">
<stop stop-color="#305FDF" stop-opacity="0.14"/>
<stop offset="1" stop-color="#8215A1" stop-opacity="0.78"/>
</linearGradient>
<linearGradient id="paint14_linear_0_3" x1="-864.66" y1="1390.84" x2="-372.216" y2="565.357" gradientUnits="userSpaceOnUse">
<stop stop-color="#E756DB" stop-opacity="0.51"/>
<stop offset="0.617708" stop-color="#E756DB" stop-opacity="0.51"/>
<stop offset="0.836458" stop-color="#8DF1FF" stop-opacity="0.43"/>
</linearGradient>
<linearGradient id="paint15_linear_0_3" x1="-842.354" y1="1419.15" x2="-349.909" y2="593.666" gradientUnits="userSpaceOnUse">
<stop stop-color="#E756DB" stop-opacity="0.51"/>
<stop offset="0.617708" stop-color="#E756DB" stop-opacity="0.51"/>
<stop offset="0.836458" stop-color="#8DF1FF" stop-opacity="0.43"/>
</linearGradient>
<radialGradient id="paint16_radial_0_3" cx="0" cy="0" r="1" gradientUnits="userSpaceOnUse" gradientTransform="translate(419.39 3540.06) rotate(128.956) scale(550.236 991.865)">
<stop stop-color="#8DF1FF"/>
<stop offset="1" stop-color="white" stop-opacity="0.1"/>
</radialGradient>
<radialGradient id="paint17_radial_0_3" cx="0" cy="0" r="1" gradientUnits="userSpaceOnUse" gradientTransform="translate(381.992 3531.85) rotate(128.956) scale(550.236 991.865)">
<stop stop-color="#8DF1FF"/>
<stop offset="1" stop-color="white" stop-opacity="0.1"/>
</radialGradient>
<radialGradient id="paint18_radial_0_3" cx="0" cy="0" r="1" gradientUnits="userSpaceOnUse" gradientTransform="translate(1832.57 4479.36) rotate(128.956) scale(550.236 991.865)">
<stop stop-color="#8DF1FF"/>
<stop offset="1" stop-color="white" stop-opacity="0.1"/>
</radialGradient>
<radialGradient id="paint19_radial_0_3" cx="0" cy="0" r="1" gradientUnits="userSpaceOnUse" gradientTransform="translate(1795.16 4471.15) rotate(128.956) scale(550.236 991.865)">
<stop stop-color="#8DF1FF"/>
<stop offset="1" stop-color="white" stop-opacity="0.1"/>
</radialGradient>
<radialGradient id="paint20_radial_0_3" cx="0" cy="0" r="1" gradientUnits="userSpaceOnUse" gradientTransform="translate(1636.42 4151.34) rotate(-12.2667) scale(646.639 843.996)">
<stop stop-color="#0358FF"/>
<stop offset="1" stop-color="white" stop-opacity="0.1"/>
</radialGradient>
<radialGradient id="paint21_radial_0_3" cx="0" cy="0" r="1" gradientUnits="userSpaceOnUse" gradientTransform="translate(1611.62 4114.34) rotate(-12.2667) scale(646.639 843.995)">
<stop stop-color="#0358FF"/>
<stop offset="1" stop-color="white" stop-opacity="0.1"/>
</radialGradient>
<radialGradient id="paint22_radial_0_3" cx="0" cy="0" r="1" gradientUnits="userSpaceOnUse" gradientTransform="translate(248.349 4506.2) rotate(167.323) scale(468.554 612.817)">
<stop stop-color="#03FFC2"/>
<stop offset="1" stop-color="white" stop-opacity="0.1"/>
</radialGradient>
<radialGradient id="paint23_radial_0_3" cx="0" cy="0" r="1" gradientUnits="userSpaceOnUse" gradientTransform="translate(203.984 4535.2) rotate(167.323) scale(468.554 612.817)">
<stop stop-color="#03FFC2"/>
<stop offset="1" stop-color="white" stop-opacity="0.1"/>
</radialGradient>
<radialGradient id="paint24_radial_0_3" cx="0" cy="0" r="1" gradientUnits="userSpaceOnUse" gradientTransform="translate(108.031 4228.95) rotate(-91.3664) scale(497.152 1058.88)">
<stop stop-color="#E88DFF"/>
<stop offset="1" stop-color="white" stop-opacity="0.1"/>
</radialGradient>
<radialGradient id="paint25_radial_0_3" cx="0" cy="0" r="1" gradientUnits="userSpaceOnUse" gradientTransform="translate(71.2629 4220.48) rotate(-91.3664) scale(497.152 1058.88)">
<stop stop-color="#E88DFF"/>
<stop offset="1" stop-color="white" stop-opacity="0.1"/>
</radialGradient>
<linearGradient id="paint26_linear_0_3" x1="1994.57" y1="2587.46" x2="2164.98" y2="2865.97" gradientUnits="userSpaceOnUse">
<stop stop-color="#305FDF" stop-opacity="0.45"/>
<stop offset="1" stop-color="#BBFFDF"/>
</linearGradient>
<linearGradient id="paint27_linear_0_3" x1="-379.599" y1="2547.53" x2="-224.602" y2="2220.57" gradientUnits="userSpaceOnUse">
<stop stop-color="#365FCD"/>
<stop offset="1" stop-color="#FAC3FF"/>
</linearGradient>
<radialGradient id="paint28_radial_0_3" cx="0" cy="0" r="1" gradientUnits="userSpaceOnUse" gradientTransform="translate(1587.4 3292.8) rotate(-52.8916) scale(546.039 999.487)">
<stop stop-color="#CFBFF4"/>
<stop offset="1" stop-color="#14F9F9" stop-opacity="0.1"/>
</radialGradient>
<radialGradient id="paint29_radial_0_3" cx="0" cy="0" r="1" gradientUnits="userSpaceOnUse" gradientTransform="translate(1625.1 3300.17) rotate(-52.8915) scale(546.04 999.487)">
<stop stop-color="#CFBFF4"/>
<stop offset="1" stop-color="#14F9F9" stop-opacity="0.1"/>
</radialGradient>
<radialGradient id="paint30_radial_0_3" cx="0" cy="0" r="1" gradientUnits="userSpaceOnUse" gradientTransform="translate(-124.427 3098.82) rotate(-16.2344) scale(416.059 564.437)">
<stop stop-color="#F5FF84"/>
<stop offset="1" stop-color="#E614F9" stop-opacity="0.1"/>
</radialGradient>
<radialGradient id="paint31_radial_0_3" cx="0" cy="0" r="1" gradientUnits="userSpaceOnUse" gradientTransform="translate(-110.591 3115.09) rotate(-16.2344) scale(416.059 564.437)">
<stop stop-color="#F5FF84"/>
<stop offset="1" stop-color="#E614F9" stop-opacity="0.1"/>
</radialGradient>
<radialGradient id="paint32_radial_0_3" cx="0" cy="0" r="1" gradientUnits="userSpaceOnUse" gradientTransform="translate(1570.8 1797.83) rotate(1.63973) scale(496.958 629.053)">
<stop stop-color="#CFBFF4"/>
<stop offset="1" stop-color="#14F9F9" stop-opacity="0.1"/>
</radialGradient>
<radialGradient id="paint33_radial_0_3" cx="0" cy="0" r="1" gradientUnits="userSpaceOnUse" gradientTransform="translate(1577.74 1819.74) rotate(1.63972) scale(496.958 629.053)">
<stop stop-color="#CFBFF4"/>
<stop offset="1" stop-color="#14F9F9" stop-opacity="0.1"/>
</radialGradient>
<radialGradient id="paint34_radial_0_3" cx="0" cy="0" r="1" gradientUnits="userSpaceOnUse" gradientTransform="translate(113.585 1637.87) rotate(114.173) scale(248.744 503.65)">
<stop stop-color="#6CE4FF" stop-opacity="0.2"/>
<stop offset="1" stop-color="#E614F9" stop-opacity="0.1"/>
</radialGradient>
<radialGradient id="paint35_radial_0_3" cx="0" cy="0" r="1" gradientUnits="userSpaceOnUse" gradientTransform="translate(95.0916 1636.59) rotate(114.172) scale(248.744 503.65)">
<stop stop-color="#6CE4FF" stop-opacity="0.2"/>
<stop offset="1" stop-color="#E614F9" stop-opacity="0.1"/>
</radialGradient>
<linearGradient id="paint36_linear_0_3" x1="2082.6" y1="2282.08" x2="2198.5" y2="1761.88" gradientUnits="userSpaceOnUse">
<stop offset="1" stop-color="#DFC330" stop-opacity="0.45"/>
</linearGradient>
<clipPath id="clip0_0_3">
<rect width="1879" height="5219" fill="white"/>
</clipPath>
</defs>
</svg>
